<svg xmlns="http://www.w3.org/2000/svg" xmlns:v="https://svgstorm.com"
viewBox = "0 0 266 253"
width="100"
height="80">
<g fill="None" fill-opacity="0.0" stroke="#000000" stroke-opacity="0.00" stroke-width="0.3"><path d="
M 0.00 253.00 
L 266.00 253.00
L 266.00 0.00
L 0.00 0.00
L 0.00 253.00
M 148.00 3.00 
C 214.49 9.43 263.44 75.32 255.67 141.67 C 247.90 208.02 184.55 257.94 117.33 249.67 C 50.11 241.40 1.47 179.15 9.33 111.33 C 17.19 43.51 80.06 -3.57 148.00 3.00 Z"/>
</g>
<g fill="None" fill-opacity="0.0" stroke="#F03232" stroke-opacity="0.92" stroke-width="0.3"><path d="
M 148.00 3.00 
C 80.06 -3.57 17.19 43.51 9.33 111.33 C 1.47 179.15 50.11 241.40 117.33 249.67 C 184.55 257.94 247.90 208.02 255.67 141.67 C 263.44 75.32 214.49 9.43 148.00 3.00
M 212.00 36.00 
C 216.00 39.16 219.88 43.05 223.00 47.00
C 238.65 66.83 250.55 89.45 252.00 115.00
C 241.35 115.26 228.42 114.65 218.00 115.00 C 207.58 115.35 210.03 100.79 205.23 93.77 C 200.43 86.75 198.66 78.76 192.23 72.77 C 185.80 66.78 180.87 61.96 173.25 57.75 C 165.64 53.53 157.79 49.82 148.93 48.07 C 140.06 46.33 125.85 46.42 117.00 48.00 C 108.15 49.57 99.92 53.17 92.31 57.31 C 84.69 61.44 79.62 66.39 73.25 72.25 C 66.88 78.10 64.94 86.03 59.70 92.70 C 54.45 99.36 58.36 114.70 48.00 115.00 C 37.64 115.30 23.69 114.78 13.00 115.00
C 16.87 72.14 43.64 34.78 83.69 16.69 C 123.75 -1.39 178.79 4.75 212.00 36.00
M 209.00 120.00 
C 209.75 124.60 209.74 129.46 209.00 134.00
C 206.89 172.86 171.53 203.69 133.00 204.00 C 94.47 204.31 58.66 173.14 56.00 134.00
C 55.23 129.68 55.40 125.23 56.00 121.00
C 57.51 81.55 93.31 50.23 132.00 50.00 C 170.69 49.77 206.86 80.58 209.00 120.00
M 35.00 124.00 
C 28.93 122.50 33.59 119.09 35.00 124.00
M 41.00 123.00 
C 41.41 125.00 41.46 128.76 40.00 130.00
C 38.47 128.27 38.78 124.46 39.00 122.00
C 38.23 122.78 36.92 123.47 36.00 124.00
C 35.01 119.23 41.30 121.55 44.00 121.00
C 44.48 123.68 42.23 121.62 41.00 123.00
M 232.00 123.00 
C 232.36 124.31 232.36 127.69 232.00 129.00
C 231.64 130.32 230.35 131.19 229.00 131.00
C 230.58 128.09 230.49 123.90 229.00 121.00
C 230.28 120.73 231.72 121.77 232.00 123.00
M 22.00 130.00 
C 20.50 128.36 20.28 123.57 22.00 122.00
C 23.50 123.64 23.72 128.43 22.00 130.00
M 35.00 130.00 
C 33.94 127.00 27.09 126.03 30.00 122.00
C 31.53 124.87 36.36 125.60 35.00 130.00
M 224.00 127.00 
C 223.16 125.21 223.64 123.22 221.00 122.00
C 224.78 120.62 226.09 124.44 224.00 127.00
M 228.00 130.00 
C 226.45 127.69 226.62 124.32 228.00 122.00
C 229.50 123.64 229.72 128.43 228.00 130.00
M 238.00 126.00 
C 238.16 126.42 238.90 129.73 238.00 130.00
C 236.91 130.33 234.38 130.34 234.00 129.00
C 236.26 127.52 235.33 125.04 236.00 123.00
C 235.10 121.27 234.08 122.74 238.00 122.00
C 238.00 123.33 238.00 124.67 238.00 126.00
M 242.00 122.00 
C 241.44 124.52 243.19 128.30 241.00 130.00
C 240.09 127.45 239.22 123.74 242.00 122.00
M 245.00 122.00 
C 245.91 124.55 246.78 128.26 244.00 130.00
C 244.56 127.48 242.81 123.70 245.00 122.00
M 53.00 136.00 
C 56.08 176.00 92.64 206.74 132.00 207.00 C 171.36 207.26 209.32 176.37 212.00 136.00
C 225.33 136.00 238.67 136.00 252.00 136.00
C 249.49 197.09 193.14 246.72 133.00 247.00 C 72.86 247.28 15.27 197.52 13.00 136.00
C 26.33 136.00 39.67 136.00 53.00 136.00 Z"/>
</g>
<g fill="None" fill-opacity="0.0" stroke="#FAF9F9" stroke-opacity="1.00" stroke-width="0.3"><path d="
M 223.00 47.00 
C 219.70 43.43 215.52 39.26 212.00 36.00
C 178.79 4.75 123.75 -1.39 83.69 16.69 C 43.64 34.78 16.87 72.14 13.00 115.00
C 23.69 114.78 37.64 115.30 48.00 115.00 C 58.36 114.70 54.45 99.36 59.70 92.70 C 64.94 86.03 66.88 78.10 73.25 72.25 C 79.62 66.39 84.69 61.44 92.31 57.31 C 99.92 53.17 108.15 49.57 117.00 48.00 C 125.85 46.42 140.06 46.33 148.93 48.07 C 157.79 49.82 165.64 53.53 173.25 57.75 C 180.87 61.96 185.80 66.78 192.23 72.77 C 198.66 78.76 200.43 86.75 205.23 93.77 C 210.03 100.79 207.58 115.35 218.00 115.00 C 228.42 114.65 241.35 115.26 252.00 115.00
C 250.55 89.45 238.65 66.83 223.00 47.00
M 124.00 31.00 
C 125.17 30.94 127.46 32.59 127.00 34.00
C 125.11 34.25 118.74 34.23 123.00 32.00
C 122.98 26.68 124.28 20.29 121.00 16.00
C 127.88 14.20 130.94 21.48 134.00 26.00
C 135.67 23.44 135.91 17.79 133.00 16.00
C 138.94 15.09 136.42 16.97 136.00 21.00 C 135.59 25.03 137.12 29.85 135.00 33.00
C 133.16 27.70 126.80 25.27 125.00 20.00
C 122.84 22.76 124.55 27.49 124.00 31.00
M 150.00 17.00 
C 143.25 18.77 141.97 28.93 146.00 34.00
C 134.35 33.15 139.00 14.08 150.00 17.00
M 117.00 34.00 
C 112.24 37.03 111.17 31.93 111.00 28.00
C 103.71 26.11 105.08 32.89 107.00 37.00
C 97.76 41.11 102.83 26.21 98.00 21.00
C 102.96 18.52 103.72 22.75 104.00 27.00
C 109.99 28.36 110.98 22.90 108.00 19.00
C 116.24 15.37 113.19 29.59 117.00 34.00
M 147.00 34.00 
C 153.53 33.13 154.84 22.52 151.00 18.00
C 162.24 18.82 156.18 38.71 147.00 34.00
M 169.00 22.00 
C 166.47 26.84 165.04 31.98 163.00 37.00
C 166.48 39.31 170.23 39.33 173.00 36.00
C 172.04 45.26 163.15 37.35 158.00 37.00
C 163.14 32.71 160.51 18.97 169.00 22.00
M 90.00 27.00 
C 89.55 26.94 87.29 27.31 87.00 27.00
C 75.87 29.63 92.14 51.10 97.00 37.00
C 91.82 55.92 68.10 30.39 87.00 26.00
C 87.10 24.89 88.28 25.22 89.00 25.00
C 91.69 24.19 92.73 24.80 93.00 28.00
C 92.06 27.43 91.18 26.85 90.00 27.00
M 188.00 32.00 
C 181.00 31.40 174.78 42.38 181.00 47.00
C 168.39 44.39 178.55 23.31 188.00 32.00
M 191.00 33.00 
C 197.22 38.89 189.80 52.06 182.00 47.00
C 188.12 45.02 189.67 37.91 191.00 33.00
M 75.00 38.00 
C 63.66 32.41 69.73 50.81 72.00 40.00
C 74.14 42.36 76.22 46.18 71.00 45.00
C 70.52 47.66 74.53 48.32 74.00 51.00
C 77.38 50.73 81.03 47.87 80.00 44.00
C 85.07 48.76 75.35 52.59 72.00 55.00
C 69.63 49.71 65.15 45.79 62.00 41.00
C 65.25 39.12 68.86 37.13 71.00 34.00
C 72.57 34.96 74.25 36.32 75.00 38.00
M 208.00 54.00 
C 212.86 39.07 188.50 46.67 195.00 58.00
C 187.80 53.56 192.13 44.02 199.01 43.01 C 205.89 41.99 215.37 49.83 208.00 54.00
M 60.00 47.00 
C 58.67 48.34 55.57 48.47 55.00 51.00
C 59.36 53.52 61.71 59.45 67.00 60.00
C 65.74 61.93 64.00 63.91 62.00 65.00
C 61.51 59.69 54.95 56.52 51.00 54.00
C 50.15 57.04 49.29 60.67 47.00 56.00
C 51.80 53.97 54.58 44.91 60.00 47.00
M 206.00 59.00 
C 202.47 60.97 199.77 62.91 196.00 60.00
C 197.95 58.72 201.94 57.59 201.00 54.00
C 202.93 55.26 204.91 57.00 206.00 59.00
M 217.00 56.00 
C 222.06 62.93 207.39 63.99 207.00 71.00
C 204.83 70.07 203.89 67.95 203.00 66.00
C 208.10 63.32 212.26 59.23 217.00 56.00
M 217.00 83.00 
C 217.97 83.59 219.95 82.54 221.00 83.00
C 220.59 83.83 220.03 84.87 219.00 85.00
C 217.83 85.50 216.03 84.82 215.00 86.00
C 213.96 81.64 210.49 78.29 209.00 74.00
C 214.45 72.54 221.12 69.47 224.00 65.00
C 223.78 69.28 233.51 76.11 227.00 78.00
C 228.54 75.43 226.25 73.64 226.00 71.00
C 223.60 70.95 221.96 72.97 220.00 74.00
C 223.81 76.24 222.02 78.63 218.00 79.00
C 221.16 73.88 215.74 75.81 213.00 77.00
C 212.85 79.43 214.53 82.76 217.00 83.00
M 53.00 78.00 
C 52.36 76.11 53.81 71.99 51.00 70.00
C 55.68 70.28 56.71 75.67 53.00 78.00
M 52.00 79.00 
C 51.70 81.04 50.71 84.27 48.00 84.00
C 44.75 78.94 31.76 78.82 37.00 71.00
C 40.69 74.59 46.84 79.57 52.00 79.00
M 36.00 82.00 
C 31.00 87.40 29.47 80.13 36.00 82.00
M 234.00 86.00 
C 226.41 84.19 231.18 95.69 224.92 97.92 C 218.65 100.14 213.76 86.54 221.00 87.00
C 217.85 89.47 218.32 95.91 223.00 96.00
C 223.92 90.70 227.02 78.85 234.00 86.00
M 45.00 97.00 
C 40.98 94.41 24.96 86.82 31.00 97.00
C 23.65 96.66 30.31 90.03 30.00 86.00
C 34.65 90.06 48.28 88.60 45.00 97.00
M 234.00 88.00 
C 237.93 93.93 230.24 95.92 234.00 88.00 Z"/>
</g>
<g fill="None" fill-opacity="0.0" stroke="#363233" stroke-opacity="1.00" stroke-width="0.3"><path d="
M 123.00 32.00 
C 124.06 35.01 123.97 31.39 124.00 31.00
C 124.55 27.49 122.84 22.76 125.00 20.00
C 126.80 25.27 133.16 27.70 135.00 33.00
C 137.12 29.85 135.59 25.03 136.00 21.00 C 136.42 16.97 138.94 15.09 133.00 16.00
C 135.91 17.79 135.67 23.44 134.00 26.00
C 130.94 21.48 127.88 14.20 121.00 16.00
C 124.28 20.29 122.98 26.68 123.00 32.00 Z"/>
</g>
<g fill="None" fill-opacity="0.0" stroke="#363233" stroke-opacity="1.00" stroke-width="0.3"><path d="
M 150.00 17.00 
C 139.00 14.08 134.35 33.15 146.00 34.00
C 141.97 28.93 143.25 18.77 150.00 17.00 Z"/>
</g>
<g fill="None" fill-opacity="0.0" stroke="#322E2F" stroke-opacity="1.00" stroke-width="0.3"><path d="
M 117.00 34.00 
C 113.19 29.59 116.24 15.37 108.00 19.00
C 110.98 22.90 109.99 28.36 104.00 27.00
C 103.72 22.75 102.96 18.52 98.00 21.00
C 102.83 26.21 97.76 41.11 107.00 37.00
C 105.08 32.89 103.71 26.11 111.00 28.00
C 111.17 31.93 112.24 37.03 117.00 34.00 Z"/>
</g>
<g fill="None" fill-opacity="0.0" stroke="#2D292A" stroke-opacity="1.00" stroke-width="0.3"><path d="
M 147.00 34.00 
C 156.18 38.71 162.24 18.82 151.00 18.00
C 154.84 22.52 153.53 33.13 147.00 34.00 Z"/>
</g>
<g fill="None" fill-opacity="0.0" stroke="#343131" stroke-opacity="1.00" stroke-width="0.3"><path d="
M 169.00 22.00 
C 160.51 18.97 163.14 32.71 158.00 37.00
C 163.15 37.35 172.04 45.26 173.00 36.00
C 170.23 39.33 166.48 39.31 163.00 37.00
C 165.04 31.98 166.47 26.84 169.00 22.00 Z"/>
</g>
<g fill="None" fill-opacity="0.0" stroke="#3F3C3D" stroke-opacity="1.00" stroke-width="0.3"><path d="
M 89.00 25.00 
C 89.48 25.18 89.69 26.78 90.00 27.00
C 91.18 26.85 92.06 27.43 93.00 28.00
C 92.73 24.80 91.69 24.19 89.00 25.00 Z"/>
</g>
<g fill="None" fill-opacity="0.0" stroke="#898687" stroke-opacity="1.00" stroke-width="0.3"><path d="
M 87.00 26.00 
C 86.95 26.50 87.00 27.00 87.00 27.00
C 87.29 27.31 89.55 26.94 90.00 27.00
C 89.69 26.78 89.48 25.18 89.00 25.00
C 88.28 25.22 87.10 24.89 87.00 26.00 Z"/>
</g>
<g fill="None" fill-opacity="0.0" stroke="#393536" stroke-opacity="1.00" stroke-width="0.3"><path d="
M 87.00 27.00 
C 87.00 27.00 86.95 26.50 87.00 26.00
C 68.10 30.39 91.82 55.92 97.00 37.00
C 92.14 51.10 75.87 29.63 87.00 27.00 Z"/>
</g>
<g fill="None" fill-opacity="0.0" stroke="#322E2F" stroke-opacity="1.00" stroke-width="0.3"><path d="
M 188.00 32.00 
C 178.55 23.31 168.39 44.39 181.00 47.00
C 174.78 42.38 181.00 31.40 188.00 32.00 Z"/>
</g>
<g fill="None" fill-opacity="0.0" stroke="#A9A8A8" stroke-opacity="1.00" stroke-width="0.3"><path d="
M 123.00 32.00 
C 118.74 34.23 125.11 34.25 127.00 34.00
C 127.46 32.59 125.17 30.94 124.00 31.00
C 123.97 31.39 124.06 35.01 123.00 32.00 Z"/>
</g>
<g fill="None" fill-opacity="0.0" stroke="#2F2B2C" stroke-opacity="1.00" stroke-width="0.3"><path d="
M 191.00 33.00 
C 189.67 37.91 188.12 45.02 182.00 47.00
C 189.80 52.06 197.22 38.89 191.00 33.00 Z"/>
</g>
<g fill="None" fill-opacity="0.0" stroke="#393637" stroke-opacity="1.00" stroke-width="0.3"><path d="
M 75.00 38.00 
C 74.25 36.32 72.57 34.96 71.00 34.00
C 68.86 37.13 65.25 39.12 62.00 41.00
C 65.15 45.79 69.63 49.71 72.00 55.00
C 75.35 52.59 85.07 48.76 80.00 44.00
C 81.03 47.87 77.38 50.73 74.00 51.00
C 74.53 48.32 70.52 47.66 71.00 45.00
C 76.22 46.18 74.14 42.36 72.00 40.00
C 69.73 50.81 63.66 32.41 75.00 38.00 Z"/>
</g>
<g fill="None" fill-opacity="0.0" stroke="#F7989C" stroke-opacity="1.00" stroke-width="0.3"><path d="
M 223.00 47.00 
C 219.88 43.05 216.00 39.16 212.00 36.00
C 215.52 39.26 219.70 43.43 223.00 47.00 Z"/>
</g>
<g fill="None" fill-opacity="0.0" stroke="#353132" stroke-opacity="1.00" stroke-width="0.3"><path d="
M 208.00 54.00 
C 215.37 49.83 205.89 41.99 199.01 43.01 C 192.13 44.02 187.80 53.56 195.00 58.00
C 188.50 46.67 212.86 39.07 208.00 54.00 Z"/>
</g>
<g fill="None" fill-opacity="0.0" stroke="#373334" stroke-opacity="1.00" stroke-width="0.3"><path d="
M 60.00 47.00 
C 54.58 44.91 51.80 53.97 47.00 56.00
C 49.29 60.67 50.15 57.04 51.00 54.00
C 54.95 56.52 61.51 59.69 62.00 65.00
C 64.00 63.91 65.74 61.93 67.00 60.00
C 61.71 59.45 59.36 53.52 55.00 51.00
C 55.57 48.47 58.67 48.34 60.00 47.00 Z"/>
</g>
<g fill="None" fill-opacity="0.0" stroke="#FFFDFD" stroke-opacity="1.00" stroke-width="0.3"><path d="
M 56.00 121.00 
C 55.84 125.25 55.71 129.76 56.00 134.00
C 58.66 173.14 94.47 204.31 133.00 204.00 C 171.53 203.69 206.89 172.86 209.00 134.00
C 209.25 129.43 209.25 124.57 209.00 120.00
C 206.86 80.58 170.69 49.77 132.00 50.00 C 93.31 50.23 57.51 81.55 56.00 121.00
M 138.00 82.00 
C 147.21 84.28 153.38 98.76 164.68 99.32 C 175.98 99.88 184.91 109.63 190.00 118.00
C 187.24 116.58 185.73 113.35 183.00 112.00
C 181.44 113.74 181.83 117.52 182.00 120.00
C 182.36 125.23 183.79 133.86 191.00 133.00
C 187.51 142.19 195.78 149.51 194.00 159.00
C 191.00 159.00 188.00 159.00 185.00 159.00
C 190.08 147.74 181.45 140.58 172.93 139.07 C 164.40 137.57 157.64 125.54 149.31 133.31 C 140.97 141.07 133.44 138.43 125.31 143.31 C 117.18 148.19 128.52 167.33 111.00 162.00
C 111.12 154.70 121.25 141.29 108.00 140.00
C 105.76 149.34 99.13 145.24 95.75 139.25 C 92.36 133.27 84.76 129.57 88.00 121.00
C 79.38 121.34 71.63 131.62 63.00 124.00
C 73.18 127.36 79.47 113.43 90.00 115.00
C 94.66 97.46 111.54 80.31 131.00 82.00
C 133.51 81.76 135.38 81.35 138.00 82.00
M 194.00 143.00 
C 190.92 136.05 196.06 126.51 190.00 119.00
C 195.87 123.80 195.91 135.37 194.00 143.00
M 151.00 154.00 
C 149.45 154.78 145.36 156.26 144.00 154.00
C 140.95 148.94 154.06 146.98 151.97 141.97 C 149.88 136.97 153.18 130.07 160.00 134.00
C 161.77 142.02 153.91 146.09 154.00 154.00
C 153.00 154.00 152.00 154.00 151.00 154.00
M 109.00 147.00 
C 113.32 154.73 106.60 163.04 98.00 160.00
C 97.78 153.63 103.03 148.23 109.00 147.00 Z"/>
</g>
<g fill="None" fill-opacity="0.0" stroke="#373435" stroke-opacity="1.00" stroke-width="0.3"><path d="
M 206.00 59.00 
C 204.91 57.00 202.93 55.26 201.00 54.00
C 201.94 57.59 197.95 58.72 196.00 60.00
C 199.77 62.91 202.47 60.97 206.00 59.00 Z"/>
</g>
<g fill="None" fill-opacity="0.0" stroke="#312D2E" stroke-opacity="1.00" stroke-width="0.3"><path d="
M 217.00 56.00 
C 212.26 59.23 208.10 63.32 203.00 66.00
C 203.89 67.95 204.83 70.07 207.00 71.00
C 207.39 63.99 222.06 62.93 217.00 56.00 Z"/>
</g>
<g fill="None" fill-opacity="0.0" stroke="#393637" stroke-opacity="1.00" stroke-width="0.3"><path d="
M 219.00 85.00 
C 218.46 84.90 217.45 83.34 217.00 83.00
C 214.53 82.76 212.85 79.43 213.00 77.00
C 215.74 75.81 221.16 73.88 218.00 79.00
C 222.02 78.63 223.81 76.24 220.00 74.00
C 221.96 72.97 223.60 70.95 226.00 71.00
C 226.25 73.64 228.54 75.43 227.00 78.00
C 233.51 76.11 223.78 69.28 224.00 65.00
C 221.12 69.47 214.45 72.54 209.00 74.00
C 210.49 78.29 213.96 81.64 215.00 86.00
C 216.03 84.82 217.83 85.50 219.00 85.00 Z"/>
</g>
<g fill="None" fill-opacity="0.0" stroke="#555252" stroke-opacity="1.00" stroke-width="0.3"><path d="
M 53.00 78.00 
C 56.71 75.67 55.68 70.28 51.00 70.00
C 53.81 71.99 52.36 76.11 53.00 78.00 Z"/>
</g>
<g fill="None" fill-opacity="0.0" stroke="#2E2A2B" stroke-opacity="1.00" stroke-width="0.3"><path d="
M 52.00 79.00 
C 46.84 79.57 40.69 74.59 37.00 71.00
C 31.76 78.82 44.75 78.94 48.00 84.00
C 50.71 84.27 51.70 81.04 52.00 79.00 Z"/>
</g>
<g fill="None" fill-opacity="0.0" stroke="#454142" stroke-opacity="1.00" stroke-width="0.3"><path d="
M 36.00 82.00 
C 29.47 80.13 31.00 87.40 36.00 82.00 Z"/>
</g>
<g fill="None" fill-opacity="0.0" stroke="#F65A5A" stroke-opacity="1.00" stroke-width="0.3"><path d="
M 131.00 82.00 
C 133.28 82.00 135.74 81.74 138.00 82.00
C 135.38 81.35 133.51 81.76 131.00 82.00 Z"/>
</g>
<g fill="None" fill-opacity="0.0" stroke="#F10F0B" stroke-opacity="1.00" stroke-width="0.3"><path d="
M 182.00 120.00 
C 181.59 117.73 179.28 111.43 183.00 112.00
C 185.73 113.35 187.24 116.58 190.00 118.00
C 184.91 109.63 175.98 99.88 164.68 99.32 C 153.38 98.76 147.21 84.28 138.00 82.00
C 135.74 81.74 133.28 82.00 131.00 82.00
C 111.54 80.31 94.66 97.46 90.00 115.00
C 79.47 113.43 73.18 127.36 63.00 124.00
C 71.63 131.62 79.38 121.34 88.00 121.00
C 84.76 129.57 92.36 133.27 95.75 139.25 C 99.13 145.24 105.76 149.34 108.00 140.00
C 121.25 141.29 111.12 154.70 111.00 162.00
C 128.52 167.33 117.18 148.19 125.31 143.31 C 133.44 138.43 140.97 141.07 149.31 133.31 C 157.64 125.54 164.40 137.57 172.93 139.07 C 181.45 140.58 190.08 147.74 185.00 159.00
C 188.00 159.00 191.00 159.00 194.00 159.00
C 195.78 149.51 187.51 142.19 191.00 133.00
C 183.79 133.86 182.36 125.23 182.00 120.00
M 92.00 124.00 
C 98.72 123.08 98.96 118.63 105.23 115.23 C 111.50 111.83 116.59 120.83 108.78 120.22 C 100.96 119.61 100.11 128.70 92.00 124.00 Z"/>
</g>
<g fill="None" fill-opacity="0.0" stroke="#A9A7A8" stroke-opacity="1.00" stroke-width="0.3"><path d="
M 219.00 85.00 
C 220.03 84.87 220.59 83.83 221.00 83.00
C 219.95 82.54 217.97 83.59 217.00 83.00
C 217.45 83.34 218.46 84.90 219.00 85.00 Z"/>
</g>
<g fill="None" fill-opacity="0.0" stroke="#343031" stroke-opacity="1.00" stroke-width="0.3"><path d="
M 234.00 86.00 
C 227.02 78.85 223.92 90.70 223.00 96.00
C 218.32 95.91 217.85 89.47 221.00 87.00
C 213.76 86.54 218.65 100.14 224.92 97.92 C 231.18 95.69 226.41 84.19 234.00 86.00 Z"/>
</g>
<g fill="None" fill-opacity="0.0" stroke="#332F30" stroke-opacity="1.00" stroke-width="0.3"><path d="
M 45.00 97.00 
C 48.28 88.60 34.65 90.06 30.00 86.00
C 30.31 90.03 23.65 96.66 31.00 97.00
C 24.96 86.82 40.98 94.41 45.00 97.00 Z"/>
</g>
<g fill="None" fill-opacity="0.0" stroke="#3A3738" stroke-opacity="1.00" stroke-width="0.3"><path d="
M 234.00 88.00 
C 230.24 95.92 237.93 93.93 234.00 88.00 Z"/>
</g>
<g fill="None" fill-opacity="0.0" stroke="#F99191" stroke-opacity="1.00" stroke-width="0.3"><path d="
M 182.00 120.00 
C 181.83 117.52 181.44 113.74 183.00 112.00
C 179.28 111.43 181.59 117.73 182.00 120.00 Z"/>
</g>
<g fill="None" fill-opacity="0.0" stroke="#020000" stroke-opacity="1.00" stroke-width="0.3"><path d="
M 92.00 124.00 
C 100.11 128.70 100.96 119.61 108.78 120.22 C 116.59 120.83 111.50 111.83 105.23 115.23 C 98.96 118.63 98.72 123.08 92.00 124.00 Z"/>
</g>
<g fill="None" fill-opacity="0.0" stroke="#F97773" stroke-opacity="1.00" stroke-width="0.3"><path d="
M 194.00 143.00 
C 195.91 135.37 195.87 123.80 190.00 119.00
C 196.06 126.51 190.92 136.05 194.00 143.00 Z"/>
</g>
<g fill="None" fill-opacity="0.0" stroke="#F79598" stroke-opacity="1.00" stroke-width="0.3"><path d="
M 209.00 134.00 
C 209.74 129.46 209.75 124.60 209.00 120.00
C 209.25 124.57 209.25 129.43 209.00 134.00 Z"/>
</g>
<g fill="None" fill-opacity="0.0" stroke="#F9827F" stroke-opacity="1.00" stroke-width="0.3"><path d="
M 35.00 124.00 
C 33.59 119.09 28.93 122.50 35.00 124.00 Z"/>
</g>
<g fill="None" fill-opacity="0.0" stroke="#F9716F" stroke-opacity="1.00" stroke-width="0.3"><path d="
M 39.00 122.00 
C 39.25 121.75 40.00 122.00 40.00 122.00
C 40.35 122.03 40.93 122.65 41.00 123.00
C 42.23 121.62 44.48 123.68 44.00 121.00
C 41.30 121.55 35.01 119.23 36.00 124.00
C 36.92 123.47 38.23 122.78 39.00 122.00 Z"/>
</g>
<g fill="None" fill-opacity="0.0" stroke="#F69295" stroke-opacity="1.00" stroke-width="0.3"><path d="
M 56.00 134.00 
C 55.71 129.76 55.84 125.25 56.00 121.00
C 55.40 125.23 55.23 129.68 56.00 134.00 Z"/>
</g>
<g fill="None" fill-opacity="0.0" stroke="#F88180" stroke-opacity="1.00" stroke-width="0.3"><path d="
M 232.00 129.00 
C 230.57 127.97 230.31 123.96 232.00 123.00
C 231.72 121.77 230.28 120.73 229.00 121.00
C 230.49 123.90 230.58 128.09 229.00 131.00
C 230.35 131.19 231.64 130.32 232.00 129.00 Z"/>
</g>
<g fill="None" fill-opacity="0.0" stroke="#FCD3D3" stroke-opacity="1.00" stroke-width="0.3"><path d="
M 22.00 130.00 
C 22.00 127.33 22.00 124.67 22.00 122.00
C 20.28 123.57 20.50 128.36 22.00 130.00 Z"/>
</g>
<g fill="None" fill-opacity="0.0" stroke="#FFFFFF" stroke-opacity="1.00" stroke-width="0.3"><path d="
M 22.00 130.00 
C 23.72 128.43 23.50 123.64 22.00 122.00
C 22.00 124.67 22.00 127.33 22.00 130.00 Z"/>
</g>
<g fill="None" fill-opacity="0.0" stroke="#FEDDDD" stroke-opacity="1.00" stroke-width="0.3"><path d="
M 35.00 130.00 
C 36.36 125.60 31.53 124.87 30.00 122.00
C 27.09 126.03 33.94 127.00 35.00 130.00 Z"/>
</g>
<g fill="None" fill-opacity="0.0" stroke="#FCD3D3" stroke-opacity="1.00" stroke-width="0.3"><path d="
M 40.00 130.00 
C 39.82 127.35 40.24 124.65 40.00 122.00
C 40.00 122.00 39.25 121.75 39.00 122.00
C 38.78 124.46 38.47 128.27 40.00 130.00 Z"/>
</g>
<g fill="None" fill-opacity="0.0" stroke="#FFFFFF" stroke-opacity="1.00" stroke-width="0.3"><path d="
M 40.00 130.00 
C 41.46 128.76 41.41 125.00 41.00 123.00
C 40.93 122.65 40.35 122.03 40.00 122.00
C 40.24 124.65 39.82 127.35 40.00 130.00 Z"/>
</g>
<g fill="None" fill-opacity="0.0" stroke="#FEE4E4" stroke-opacity="1.00" stroke-width="0.3"><path d="
M 224.00 127.00 
C 226.09 124.44 224.78 120.62 221.00 122.00
C 223.64 123.22 223.16 125.21 224.00 127.00 Z"/>
</g>
<g fill="None" fill-opacity="0.0" stroke="#FFEFEE" stroke-opacity="1.00" stroke-width="0.3"><path d="
M 228.00 130.00 
C 229.72 128.43 229.50 123.64 228.00 122.00
C 226.62 124.32 226.45 127.69 228.00 130.00 Z"/>
</g>
<g fill="None" fill-opacity="0.0" stroke="#FEF5F5" stroke-opacity="1.00" stroke-width="0.3"><path d="
M 236.00 123.00 
C 236.39 123.76 237.71 125.24 238.00 126.00
C 238.00 124.67 238.00 123.33 238.00 122.00
C 234.08 122.74 235.10 121.27 236.00 123.00 Z"/>
</g>
<g fill="None" fill-opacity="0.0" stroke="#FEEBEA" stroke-opacity="1.00" stroke-width="0.3"><path d="
M 242.00 122.00 
C 239.22 123.74 240.09 127.45 241.00 130.00
C 243.19 128.30 241.44 124.52 242.00 122.00 Z"/>
</g>
<g fill="None" fill-opacity="0.0" stroke="#FFDDDD" stroke-opacity="1.00" stroke-width="0.3"><path d="
M 245.00 122.00 
C 242.81 123.70 244.56 127.48 244.00 130.00
C 246.78 128.26 245.91 124.55 245.00 122.00 Z"/>
</g>
<g fill="None" fill-opacity="0.0" stroke="#FFFFFF" stroke-opacity="1.00" stroke-width="0.3"><path d="
M 232.00 129.00 
C 232.36 127.69 232.36 124.31 232.00 123.00
C 230.31 123.96 230.57 127.97 232.00 129.00 Z"/>
</g>
<g fill="None" fill-opacity="0.0" stroke="#FA8482" stroke-opacity="1.00" stroke-width="0.3"><path d="
M 234.00 129.00 
C 235.17 127.75 237.33 128.66 238.00 130.00
C 238.90 129.73 238.16 126.42 238.00 126.00
C 237.71 125.24 236.39 123.76 236.00 123.00
C 235.33 125.04 236.26 127.52 234.00 129.00 Z"/>
</g>
<g fill="None" fill-opacity="0.0" stroke="#FEF2F2" stroke-opacity="1.00" stroke-width="0.3"><path d="
M 234.00 129.00 
C 234.38 130.34 236.91 130.33 238.00 130.00
C 237.33 128.66 235.17 127.75 234.00 129.00 Z"/>
</g>
<g fill="None" fill-opacity="0.0" stroke="#F3231E" stroke-opacity="1.00" stroke-width="0.3"><path d="
M 144.00 154.00 
C 146.19 153.53 148.85 154.63 151.00 154.00
C 152.00 154.00 153.00 154.00 154.00 154.00
C 153.91 146.09 161.77 142.02 160.00 134.00
C 153.18 130.07 149.88 136.97 151.97 141.97 C 154.06 146.98 140.95 148.94 144.00 154.00 Z"/>
</g>
<g fill="None" fill-opacity="0.0" stroke="#FBFAFA" stroke-opacity="1.00" stroke-width="0.3"><path d="
M 53.00 136.00 
C 39.67 136.00 26.33 136.00 13.00 136.00
C 15.27 197.52 72.86 247.28 133.00 247.00 C 193.14 246.72 249.49 197.09 252.00 136.00
C 238.67 136.00 225.33 136.00 212.00 136.00
C 209.32 176.37 171.36 207.26 132.00 207.00 C 92.64 206.74 56.08 176.00 53.00 136.00
M 231.00 149.00 
C 230.24 153.62 233.98 151.08 235.00 149.00
C 237.50 157.39 221.55 153.40 227.00 147.00
C 228.23 149.16 228.54 152.65 231.00 149.00
M 40.00 148.00 
C 43.69 155.22 36.11 152.77 32.00 153.00
C 34.49 150.69 39.14 151.88 40.00 148.00
M 228.00 155.00 
C 221.92 161.16 232.51 163.39 232.00 156.00
C 236.97 168.92 215.17 159.08 228.00 155.00
M 40.00 158.00 
C 40.84 158.37 42.13 157.70 43.00 158.00
C 42.39 161.68 38.16 164.00 35.00 165.00
C 35.21 163.14 37.72 158.90 34.00 159.00
C 34.12 156.18 36.77 156.58 40.00 158.00
M 230.00 166.00 
C 226.76 169.58 222.66 168.37 228.00 173.00
C 225.22 172.39 222.72 170.93 220.00 170.00
C 223.24 166.42 227.34 167.63 222.00 163.00
C 224.78 163.61 227.28 165.07 230.00 166.00
M 45.00 164.00 
C 44.04 167.01 38.38 166.92 38.00 171.00
C 35.04 166.20 41.45 164.72 45.00 164.00
M 49.00 174.00 
C 47.08 172.99 43.93 170.91 46.00 175.00
C 42.28 172.92 41.57 173.60 41.00 177.00
C 35.29 171.98 49.95 165.49 49.00 174.00
M 223.00 173.00 
C 221.14 176.55 223.29 177.74 226.00 175.00
C 226.19 182.79 213.39 176.46 218.00 171.00
C 221.07 172.30 218.12 176.60 223.00 173.00
M 50.00 175.00 
C 50.86 178.67 45.91 184.42 53.00 180.00
C 52.88 183.67 48.06 183.69 46.00 186.00
C 44.06 183.35 48.29 180.92 48.00 178.00
C 46.19 178.02 44.11 181.64 43.00 180.00
C 44.31 177.07 47.52 176.44 50.00 175.00
M 223.00 181.00 
C 222.24 187.49 214.69 182.74 214.00 179.00
C 217.53 180.55 219.92 184.11 223.00 181.00
M 58.00 187.00 
C 55.26 186.99 52.32 189.00 49.00 190.00
C 49.97 186.79 54.78 186.70 54.00 183.00
C 56.14 183.59 56.46 186.04 58.00 187.00
M 220.00 186.00 
C 218.65 192.28 211.82 188.40 211.00 184.00
C 214.57 185.67 216.31 188.96 220.00 186.00
M 210.00 187.00 
C 207.19 189.98 211.97 194.75 215.00 192.00
C 214.51 200.83 200.50 188.12 210.00 187.00
M 62.00 194.00 
C 58.45 190.29 57.71 191.65 59.00 197.00
C 56.12 198.65 52.96 196.35 53.00 193.00
C 57.33 201.23 57.18 180.82 62.00 194.00
M 207.00 193.00 
C 199.23 196.17 206.09 203.70 210.00 196.00
C 209.25 210.43 192.58 193.10 207.00 193.00
M 69.00 198.00 
C 70.50 202.45 65.61 198.34 66.00 202.00
C 67.65 204.35 69.67 205.24 66.00 208.00
C 64.56 205.74 60.11 204.77 61.00 201.00
C 64.27 200.39 65.32 197.28 69.00 198.00
M 199.00 199.00 
C 197.29 203.76 202.48 203.23 204.00 206.00
C 200.00 204.33 200.89 208.87 198.00 209.00
C 198.70 206.30 197.20 203.17 194.00 204.00
C 195.93 202.36 196.53 200.95 199.00 199.00
M 192.00 204.00 
C 190.16 206.87 190.27 210.30 194.00 207.00
C 192.97 209.21 192.91 212.18 196.00 210.00
C 197.58 211.05 194.10 213.38 193.00 214.00
C 190.29 210.54 185.46 206.03 192.00 204.00
M 77.00 205.00 
C 76.64 208.36 70.95 210.80 75.00 214.00
C 68.17 213.53 73.19 205.59 77.00 205.00
M 84.00 212.00 
C 80.29 208.58 80.19 212.16 82.00 215.00
C 78.29 211.58 78.19 215.16 80.00 218.00
C 73.32 216.64 78.14 211.45 80.00 208.00
C 81.61 208.99 84.40 209.42 84.00 212.00
M 184.00 210.00 
C 181.11 212.71 182.46 214.76 186.00 213.00
C 181.56 217.73 187.34 214.98 188.00 218.00
C 183.11 222.32 176.15 209.82 184.00 210.00
M 90.00 213.00 
C 90.21 216.46 88.30 219.40 89.00 223.00
C 87.04 220.32 84.60 218.73 82.00 219.00
C 84.10 216.54 86.28 212.57 90.00 213.00
M 179.00 222.00 
C 175.37 222.41 172.97 218.43 171.00 216.00
C 173.70 215.40 175.83 217.97 177.00 220.00
C 179.40 218.34 175.92 215.46 177.00 213.00
C 180.83 213.36 178.23 219.30 179.00 222.00
M 93.00 216.00 
C 96.72 214.70 103.73 221.98 97.75 224.75 C 91.76 227.51 89.89 220.14 93.00 216.00
M 170.00 217.00 
C 171.42 219.55 172.45 222.16 173.00 225.00
C 170.23 224.75 168.11 218.86 170.00 217.00
M 106.00 220.00 
C 102.38 221.37 103.66 222.21 105.00 225.00
C 101.50 223.09 101.47 226.54 104.00 228.00
C 97.07 229.38 100.88 215.95 106.00 220.00
M 168.00 220.00 
C 166.94 222.98 168.11 224.29 169.00 227.00
C 165.23 224.77 165.94 226.37 163.00 228.00
C 160.86 223.31 160.68 215.96 168.00 220.00
M 112.00 230.00 
C 109.84 228.32 109.55 226.38 107.00 229.00
C 106.41 226.09 108.59 223.94 108.00 221.00
C 114.64 220.42 114.01 225.89 112.00 230.00
M 152.00 222.00 
C 155.25 219.64 164.10 222.87 160.07 228.07 C 156.05 233.28 151.65 226.60 152.00 222.00
M 122.00 225.00 
C 120.57 227.65 118.86 222.63 117.00 225.00
C 123.45 226.26 120.34 235.63 115.00 230.00
C 121.55 229.83 115.49 228.04 116.00 223.00
C 118.08 223.08 121.28 222.31 122.00 225.00
M 148.00 223.00 
C 146.36 224.78 143.17 227.29 148.00 227.00
C 143.31 228.88 146.82 229.16 148.00 232.00
C 141.47 234.22 140.83 220.55 148.00 223.00
M 133.00 229.00 
C 133.72 222.15 137.93 224.12 138.00 230.00
C 140.09 228.80 137.76 224.56 141.00 224.00
C 141.03 227.17 140.13 230.12 139.00 233.00
C 134.88 228.38 136.47 228.80 132.00 233.00
C 130.83 230.15 130.00 227.18 130.00 224.00
C 132.94 224.43 130.92 228.09 133.00 229.00 Z"/>
</g>
<g fill="None" fill-opacity="0.0" stroke="#F42F27" stroke-opacity="1.00" stroke-width="0.3"><path d="
M 109.00 147.00 
C 103.03 148.23 97.78 153.63 98.00 160.00
C 106.60 163.04 113.32 154.73 109.00 147.00 Z"/>
</g>
<g fill="None" fill-opacity="0.0" stroke="#413E3F" stroke-opacity="1.00" stroke-width="0.3"><path d="
M 231.00 149.00 
C 228.54 152.65 228.23 149.16 227.00 147.00
C 221.55 153.40 237.50 157.39 235.00 149.00
C 233.98 151.08 230.24 153.62 231.00 149.00 Z"/>
</g>
<g fill="None" fill-opacity="0.0" stroke="#3B3738" stroke-opacity="1.00" stroke-width="0.3"><path d="
M 40.00 148.00 
C 39.14 151.88 34.49 150.69 32.00 153.00
C 36.11 152.77 43.69 155.22 40.00 148.00 Z"/>
</g>
<g fill="None" fill-opacity="0.0" stroke="#F98D8C" stroke-opacity="1.00" stroke-width="0.3"><path d="
M 151.00 154.00 
C 148.85 154.63 146.19 153.53 144.00 154.00
C 145.36 156.26 149.45 154.78 151.00 154.00 Z"/>
</g>
<g fill="None" fill-opacity="0.0" stroke="#423E3F" stroke-opacity="1.00" stroke-width="0.3"><path d="
M 228.00 155.00 
C 215.17 159.08 236.97 168.92 232.00 156.00
C 232.51 163.39 221.92 161.16 228.00 155.00 Z"/>
</g>
<g fill="None" fill-opacity="0.0" stroke="#9D9C9C" stroke-opacity="1.00" stroke-width="0.3"><path d="
M 34.00 159.00 
C 35.03 157.65 38.27 157.66 40.00 158.00
C 36.77 156.58 34.12 156.18 34.00 159.00 Z"/>
</g>
<g fill="None" fill-opacity="0.0" stroke="#3C3839" stroke-opacity="1.00" stroke-width="0.3"><path d="
M 34.00 159.00 
C 37.72 158.90 35.21 163.14 35.00 165.00
C 38.16 164.00 42.39 161.68 43.00 158.00
C 42.13 157.70 40.84 158.37 40.00 158.00
C 38.27 157.66 35.03 157.65 34.00 159.00
M 40.00 159.00 
C 38.38 163.24 35.18 158.11 40.00 159.00 Z"/>
</g>
<g fill="None" fill-opacity="0.0" stroke="#BCBABB" stroke-opacity="1.00" stroke-width="0.3"><path d="
M 40.00 159.00 
C 35.18 158.11 38.38 163.24 40.00 159.00 Z"/>
</g>
<g fill="None" fill-opacity="0.0" stroke="#3C393A" stroke-opacity="1.00" stroke-width="0.3"><path d="
M 230.00 166.00 
C 227.28 165.07 224.78 163.61 222.00 163.00
C 227.34 167.63 223.24 166.42 220.00 170.00
C 222.72 170.93 225.22 172.39 228.00 173.00
C 222.66 168.37 226.76 169.58 230.00 166.00 Z"/>
</g>
<g fill="None" fill-opacity="0.0" stroke="#3D393A" stroke-opacity="1.00" stroke-width="0.3"><path d="
M 45.00 164.00 
C 41.45 164.72 35.04 166.20 38.00 171.00
C 38.38 166.92 44.04 167.01 45.00 164.00 Z"/>
</g>
<g fill="None" fill-opacity="0.0" stroke="#474344" stroke-opacity="1.00" stroke-width="0.3"><path d="
M 49.00 174.00 
C 49.95 165.49 35.29 171.98 41.00 177.00
C 41.57 173.60 42.28 172.92 46.00 175.00
C 43.93 170.91 47.08 172.99 49.00 174.00 Z"/>
</g>
<g fill="None" fill-opacity="0.0" stroke="#494647" stroke-opacity="1.00" stroke-width="0.3"><path d="
M 223.00 173.00 
C 218.12 176.60 221.07 172.30 218.00 171.00
C 213.39 176.46 226.19 182.79 226.00 175.00
C 223.29 177.74 221.14 176.55 223.00 173.00 Z"/>
</g>
<g fill="None" fill-opacity="0.0" stroke="#3B3839" stroke-opacity="1.00" stroke-width="0.3"><path d="
M 50.00 175.00 
C 47.52 176.44 44.31 177.07 43.00 180.00
C 44.11 181.64 46.19 178.02 48.00 178.00
C 48.29 180.92 44.06 183.35 46.00 186.00
C 48.06 183.69 52.88 183.67 53.00 180.00
C 45.91 184.42 50.86 178.67 50.00 175.00 Z"/>
</g>
<g fill="None" fill-opacity="0.0" stroke="#3C3839" stroke-opacity="1.00" stroke-width="0.3"><path d="
M 223.00 181.00 
C 219.92 184.11 217.53 180.55 214.00 179.00
C 214.69 182.74 222.24 187.49 223.00 181.00 Z"/>
</g>
<g fill="None" fill-opacity="0.0" stroke="#3D3A3B" stroke-opacity="1.00" stroke-width="0.3"><path d="
M 58.00 187.00 
C 56.46 186.04 56.14 183.59 54.00 183.00
C 54.78 186.70 49.97 186.79 49.00 190.00
C 52.32 189.00 55.26 186.99 58.00 187.00 Z"/>
</g>
<g fill="None" fill-opacity="0.0" stroke="#413D3E" stroke-opacity="1.00" stroke-width="0.3"><path d="
M 220.00 186.00 
C 216.31 188.96 214.57 185.67 211.00 184.00
C 211.82 188.40 218.65 192.28 220.00 186.00 Z"/>
</g>
<g fill="None" fill-opacity="0.0" stroke="#423F40" stroke-opacity="1.00" stroke-width="0.3"><path d="
M 210.00 187.00 
C 200.50 188.12 214.51 200.83 215.00 192.00
C 211.97 194.75 207.19 189.98 210.00 187.00 Z"/>
</g>
<g fill="None" fill-opacity="0.0" stroke="#444041" stroke-opacity="1.00" stroke-width="0.3"><path d="
M 62.00 194.00 
C 57.18 180.82 57.33 201.23 53.00 193.00
C 52.96 196.35 56.12 198.65 59.00 197.00
C 57.71 191.65 58.45 190.29 62.00 194.00 Z"/>
</g>
<g fill="None" fill-opacity="0.0" stroke="#454243" stroke-opacity="1.00" stroke-width="0.3"><path d="
M 207.00 193.00 
C 192.58 193.10 209.25 210.43 210.00 196.00
C 206.09 203.70 199.23 196.17 207.00 193.00 Z"/>
</g>
<g fill="None" fill-opacity="0.0" stroke="#3C393A" stroke-opacity="1.00" stroke-width="0.3"><path d="
M 69.00 198.00 
C 65.32 197.28 64.27 200.39 61.00 201.00
C 60.11 204.77 64.56 205.74 66.00 208.00
C 69.67 205.24 67.65 204.35 66.00 202.00
C 65.61 198.34 70.50 202.45 69.00 198.00
M 65.00 201.00 
C 66.05 206.89 59.11 201.01 65.00 201.00 Z"/>
</g>
<g fill="None" fill-opacity="0.0" stroke="#444142" stroke-opacity="1.00" stroke-width="0.3"><path d="
M 199.00 199.00 
C 196.53 200.95 195.93 202.36 194.00 204.00
C 197.20 203.17 198.70 206.30 198.00 209.00
C 200.89 208.87 200.00 204.33 204.00 206.00
C 202.48 203.23 197.29 203.76 199.00 199.00 Z"/>
</g>
<g fill="None" fill-opacity="0.0" stroke="#C6C5C6" stroke-opacity="1.00" stroke-width="0.3"><path d="
M 65.00 201.00 
C 59.11 201.01 66.05 206.89 65.00 201.00 Z"/>
</g>
<g fill="None" fill-opacity="0.0" stroke="#444041" stroke-opacity="1.00" stroke-width="0.3"><path d="
M 192.00 204.00 
C 185.46 206.03 190.29 210.54 193.00 214.00
C 194.10 213.38 197.58 211.05 196.00 210.00
C 192.91 212.18 192.97 209.21 194.00 207.00
C 190.27 210.30 190.16 206.87 192.00 204.00 Z"/>
</g>
<g fill="None" fill-opacity="0.0" stroke="#433F40" stroke-opacity="1.00" stroke-width="0.3"><path d="
M 77.00 205.00 
C 73.19 205.59 68.17 213.53 75.00 214.00
C 70.95 210.80 76.64 208.36 77.00 205.00 Z"/>
</g>
<g fill="None" fill-opacity="0.0" stroke="#423F40" stroke-opacity="1.00" stroke-width="0.3"><path d="
M 84.00 212.00 
C 84.40 209.42 81.61 208.99 80.00 208.00
C 78.14 211.45 73.32 216.64 80.00 218.00
C 78.19 215.16 78.29 211.58 82.00 215.00
C 80.19 212.16 80.29 208.58 84.00 212.00 Z"/>
</g>
<g fill="None" fill-opacity="0.0" stroke="#403C3D" stroke-opacity="1.00" stroke-width="0.3"><path d="
M 184.00 210.00 
C 176.15 209.82 183.11 222.32 188.00 218.00
C 187.34 214.98 181.56 217.73 186.00 213.00
C 182.46 214.76 181.11 212.71 184.00 210.00 Z"/>
</g>
<g fill="None" fill-opacity="0.0" stroke="#4C494A" stroke-opacity="1.00" stroke-width="0.3"><path d="
M 90.00 213.00 
C 86.28 212.57 84.10 216.54 82.00 219.00
C 84.60 218.73 87.04 220.32 89.00 223.00
C 88.30 219.40 90.21 216.46 90.00 213.00 Z"/>
</g>
<g fill="None" fill-opacity="0.0" stroke="#423E3F" stroke-opacity="1.00" stroke-width="0.3"><path d="
M 179.00 222.00 
C 178.23 219.30 180.83 213.36 177.00 213.00
C 175.92 215.46 179.40 218.34 177.00 220.00
C 175.83 217.97 173.70 215.40 171.00 216.00
C 172.97 218.43 175.37 222.41 179.00 222.00 Z"/>
</g>
<g fill="None" fill-opacity="0.0" stroke="#3C3839" stroke-opacity="1.00" stroke-width="0.3"><path d="
M 93.00 216.00 
C 89.89 220.14 91.76 227.51 97.75 224.75 C 103.73 221.98 96.72 214.70 93.00 216.00
M 97.00 218.00 
C 99.69 219.19 96.68 224.96 94.30 223.64 C 91.93 222.32 94.01 216.68 97.00 218.00 Z"/>
</g>
<g fill="None" fill-opacity="0.0" stroke="#3E3A3B" stroke-opacity="1.00" stroke-width="0.3"><path d="
M 170.00 217.00 
C 168.11 218.86 170.23 224.75 173.00 225.00
C 172.45 222.16 171.42 219.55 170.00 217.00 Z"/>
</g>
<g fill="None" fill-opacity="0.0" stroke="#DDDCDC" stroke-opacity="1.00" stroke-width="0.3"><path d="
M 97.00 218.00 
C 94.01 216.68 91.93 222.32 94.30 223.64 C 96.68 224.96 99.69 219.19 97.00 218.00 Z"/>
</g>
<g fill="None" fill-opacity="0.0" stroke="#383536" stroke-opacity="1.00" stroke-width="0.3"><path d="
M 106.00 220.00 
C 100.88 215.95 97.07 229.38 104.00 228.00
C 101.47 226.54 101.50 223.09 105.00 225.00
C 103.66 222.21 102.38 221.37 106.00 220.00 Z"/>
</g>
<g fill="None" fill-opacity="0.0" stroke="#423F3F" stroke-opacity="1.00" stroke-width="0.3"><path d="
M 168.00 220.00 
C 160.68 215.96 160.86 223.31 163.00 228.00
C 165.94 226.37 165.23 224.77 169.00 227.00
C 168.11 224.29 166.94 222.98 168.00 220.00
M 166.00 220.00 
C 166.77 226.08 159.86 220.31 166.00 220.00 Z"/>
</g>
<g fill="None" fill-opacity="0.0" stroke="#C3C2C2" stroke-opacity="1.00" stroke-width="0.3"><path d="
M 166.00 220.00 
C 159.86 220.31 166.77 226.08 166.00 220.00 Z"/>
</g>
<g fill="None" fill-opacity="0.0" stroke="#3E3A3B" stroke-opacity="1.00" stroke-width="0.3"><path d="
M 112.00 230.00 
C 114.01 225.89 114.64 220.42 108.00 221.00
C 108.59 223.94 106.41 226.09 107.00 229.00
C 109.55 226.38 109.84 228.32 112.00 230.00
M 112.00 223.00 
C 111.82 227.35 106.88 222.90 112.00 223.00 Z"/>
</g>
<g fill="None" fill-opacity="0.0" stroke="#3A3738" stroke-opacity="1.00" stroke-width="0.3"><path d="
M 152.00 222.00 
C 151.65 226.60 156.05 233.28 160.07 228.07 C 164.10 222.87 155.25 219.64 152.00 222.00
M 154.00 223.00 
C 164.35 222.45 154.08 234.35 154.00 223.00 Z"/>
</g>
<g fill="None" fill-opacity="0.0" stroke="#ECECEC" stroke-opacity="1.00" stroke-width="0.3"><path d="
M 112.00 223.00 
C 106.88 222.90 111.82 227.35 112.00 223.00 Z"/>
</g>
<g fill="None" fill-opacity="0.0" stroke="#474445" stroke-opacity="1.00" stroke-width="0.3"><path d="
M 122.00 225.00 
C 121.28 222.31 118.08 223.08 116.00 223.00
C 115.49 228.04 121.55 229.83 115.00 230.00
C 120.34 235.63 123.45 226.26 117.00 225.00
C 118.86 222.63 120.57 227.65 122.00 225.00 Z"/>
</g>
<g fill="None" fill-opacity="0.0" stroke="#433F40" stroke-opacity="1.00" stroke-width="0.3"><path d="
M 148.00 223.00 
C 140.83 220.55 141.47 234.22 148.00 232.00
C 146.82 229.16 143.31 228.88 148.00 227.00
C 143.17 227.29 146.36 224.78 148.00 223.00 Z"/>
</g>
<g fill="None" fill-opacity="0.0" stroke="#DEDEDE" stroke-opacity="1.00" stroke-width="0.3"><path d="
M 154.00 223.00 
C 154.08 234.35 164.35 222.45 154.00 223.00 Z"/>
</g>
<g fill="None" fill-opacity="0.0" stroke="#423F40" stroke-opacity="1.00" stroke-width="0.3"><path d="
M 133.00 229.00 
C 130.92 228.09 132.94 224.43 130.00 224.00
C 130.00 227.18 130.83 230.15 132.00 233.00
C 136.47 228.80 134.88 228.38 139.00 233.00
C 140.13 230.12 141.03 227.17 141.00 224.00
C 137.76 224.56 140.09 228.80 138.00 230.00
C 137.93 224.12 133.72 222.15 133.00 229.00 Z"/>
</g>
<g fill="#000000" fill-opacity="0.00" stroke="None">
<path d="
M 0.00 253.00 
L 266.00 253.00
L 266.00 0.00
L 0.00 0.00
L 0.00 253.00
M 148.00 3.00 
C 214.49 9.43 263.44 75.32 255.67 141.67 C 247.90 208.02 184.55 257.94 117.33 249.67 C 50.11 241.40 1.47 179.15 9.33 111.33 C 17.19 43.51 80.06 -3.57 148.00 3.00 Z"/>
</g>
<g fill="#F03232" fill-opacity="0.92" stroke="None">
<path d="
M 148.00 3.00 
C 80.06 -3.57 17.19 43.51 9.33 111.33 C 1.47 179.15 50.11 241.40 117.33 249.67 C 184.55 257.94 247.90 208.02 255.67 141.67 C 263.44 75.32 214.49 9.43 148.00 3.00
M 212.00 36.00 
C 216.00 39.16 219.88 43.05 223.00 47.00
C 238.65 66.83 250.55 89.45 252.00 115.00
C 241.35 115.26 228.42 114.65 218.00 115.00 C 207.58 115.35 210.03 100.79 205.23 93.77 C 200.43 86.75 198.66 78.76 192.23 72.77 C 185.80 66.78 180.87 61.96 173.25 57.75 C 165.64 53.53 157.79 49.82 148.93 48.07 C 140.06 46.33 125.85 46.42 117.00 48.00 C 108.15 49.57 99.92 53.17 92.31 57.31 C 84.69 61.44 79.62 66.39 73.25 72.25 C 66.88 78.10 64.94 86.03 59.70 92.70 C 54.45 99.36 58.36 114.70 48.00 115.00 C 37.64 115.30 23.69 114.78 13.00 115.00
C 16.87 72.14 43.64 34.78 83.69 16.69 C 123.75 -1.39 178.79 4.75 212.00 36.00
M 209.00 120.00 
C 209.75 124.60 209.74 129.46 209.00 134.00
C 206.89 172.86 171.53 203.69 133.00 204.00 C 94.47 204.31 58.66 173.14 56.00 134.00
C 55.23 129.68 55.40 125.23 56.00 121.00
C 57.51 81.55 93.31 50.23 132.00 50.00 C 170.69 49.77 206.86 80.58 209.00 120.00
M 35.00 124.00 
C 28.93 122.50 33.59 119.09 35.00 124.00
M 41.00 123.00 
C 41.41 125.00 41.46 128.76 40.00 130.00
C 38.47 128.27 38.78 124.46 39.00 122.00
C 38.23 122.78 36.92 123.47 36.00 124.00
C 35.01 119.23 41.30 121.55 44.00 121.00
C 44.48 123.68 42.23 121.62 41.00 123.00
M 232.00 123.00 
C 232.36 124.31 232.36 127.69 232.00 129.00
C 231.64 130.32 230.35 131.19 229.00 131.00
C 230.58 128.09 230.49 123.90 229.00 121.00
C 230.28 120.73 231.72 121.77 232.00 123.00
M 22.00 130.00 
C 20.50 128.36 20.28 123.57 22.00 122.00
C 23.50 123.64 23.72 128.43 22.00 130.00
M 35.00 130.00 
C 33.94 127.00 27.09 126.03 30.00 122.00
C 31.53 124.87 36.36 125.60 35.00 130.00
M 224.00 127.00 
C 223.16 125.21 223.64 123.22 221.00 122.00
C 224.78 120.62 226.09 124.44 224.00 127.00
M 228.00 130.00 
C 226.45 127.69 226.62 124.32 228.00 122.00
C 229.50 123.64 229.72 128.43 228.00 130.00
M 238.00 126.00 
C 238.16 126.42 238.90 129.73 238.00 130.00
C 236.91 130.33 234.38 130.34 234.00 129.00
C 236.26 127.52 235.33 125.04 236.00 123.00
C 235.10 121.27 234.08 122.74 238.00 122.00
C 238.00 123.33 238.00 124.67 238.00 126.00
M 242.00 122.00 
C 241.44 124.52 243.19 128.30 241.00 130.00
C 240.09 127.45 239.22 123.74 242.00 122.00
M 245.00 122.00 
C 245.91 124.55 246.78 128.26 244.00 130.00
C 244.56 127.48 242.81 123.70 245.00 122.00
M 53.00 136.00 
C 56.08 176.00 92.64 206.74 132.00 207.00 C 171.36 207.26 209.32 176.37 212.00 136.00
C 225.33 136.00 238.67 136.00 252.00 136.00
C 249.49 197.09 193.14 246.72 133.00 247.00 C 72.86 247.28 15.27 197.52 13.00 136.00
C 26.33 136.00 39.67 136.00 53.00 136.00 Z"/>
</g>
<g fill="#FAF9F9" fill-opacity="1.00" stroke="None">
<path d="
M 223.00 47.00 
C 219.70 43.43 215.52 39.26 212.00 36.00
C 178.79 4.75 123.75 -1.39 83.69 16.69 C 43.64 34.78 16.87 72.14 13.00 115.00
C 23.69 114.78 37.64 115.30 48.00 115.00 C 58.36 114.70 54.45 99.36 59.70 92.70 C 64.94 86.03 66.88 78.10 73.25 72.25 C 79.62 66.39 84.69 61.44 92.31 57.31 C 99.92 53.17 108.15 49.57 117.00 48.00 C 125.85 46.42 140.06 46.33 148.93 48.07 C 157.79 49.82 165.64 53.53 173.25 57.75 C 180.87 61.96 185.80 66.78 192.23 72.77 C 198.66 78.76 200.43 86.75 205.23 93.77 C 210.03 100.79 207.58 115.35 218.00 115.00 C 228.42 114.65 241.35 115.26 252.00 115.00
C 250.55 89.45 238.65 66.83 223.00 47.00
M 124.00 31.00 
C 125.17 30.94 127.46 32.59 127.00 34.00
C 125.11 34.25 118.74 34.23 123.00 32.00
C 122.98 26.68 124.28 20.29 121.00 16.00
C 127.88 14.20 130.94 21.48 134.00 26.00
C 135.67 23.44 135.91 17.79 133.00 16.00
C 138.94 15.09 136.42 16.97 136.00 21.00 C 135.59 25.03 137.12 29.85 135.00 33.00
C 133.16 27.70 126.80 25.27 125.00 20.00
C 122.84 22.76 124.55 27.49 124.00 31.00
M 150.00 17.00 
C 143.25 18.77 141.97 28.93 146.00 34.00
C 134.35 33.15 139.00 14.08 150.00 17.00
M 117.00 34.00 
C 112.24 37.03 111.17 31.93 111.00 28.00
C 103.71 26.11 105.08 32.89 107.00 37.00
C 97.76 41.11 102.83 26.21 98.00 21.00
C 102.96 18.52 103.72 22.75 104.00 27.00
C 109.99 28.36 110.98 22.90 108.00 19.00
C 116.24 15.37 113.19 29.59 117.00 34.00
M 147.00 34.00 
C 153.53 33.13 154.84 22.52 151.00 18.00
C 162.24 18.82 156.18 38.71 147.00 34.00
M 169.00 22.00 
C 166.47 26.84 165.04 31.98 163.00 37.00
C 166.48 39.31 170.23 39.33 173.00 36.00
C 172.04 45.26 163.15 37.35 158.00 37.00
C 163.14 32.71 160.51 18.97 169.00 22.00
M 90.00 27.00 
C 89.55 26.94 87.29 27.31 87.00 27.00
C 75.87 29.63 92.14 51.10 97.00 37.00
C 91.82 55.92 68.10 30.39 87.00 26.00
C 87.10 24.89 88.28 25.22 89.00 25.00
C 91.69 24.19 92.73 24.80 93.00 28.00
C 92.06 27.43 91.18 26.85 90.00 27.00
M 188.00 32.00 
C 181.00 31.40 174.78 42.38 181.00 47.00
C 168.39 44.39 178.55 23.31 188.00 32.00
M 191.00 33.00 
C 197.22 38.89 189.80 52.06 182.00 47.00
C 188.12 45.02 189.67 37.91 191.00 33.00
M 75.00 38.00 
C 63.66 32.41 69.73 50.81 72.00 40.00
C 74.14 42.36 76.22 46.18 71.00 45.00
C 70.52 47.66 74.53 48.32 74.00 51.00
C 77.38 50.73 81.03 47.87 80.00 44.00
C 85.07 48.76 75.35 52.59 72.00 55.00
C 69.63 49.71 65.15 45.79 62.00 41.00
C 65.25 39.12 68.86 37.13 71.00 34.00
C 72.57 34.96 74.25 36.32 75.00 38.00
M 208.00 54.00 
C 212.86 39.07 188.50 46.67 195.00 58.00
C 187.80 53.56 192.13 44.02 199.01 43.01 C 205.89 41.99 215.37 49.83 208.00 54.00
M 60.00 47.00 
C 58.67 48.34 55.57 48.47 55.00 51.00
C 59.36 53.52 61.71 59.45 67.00 60.00
C 65.74 61.93 64.00 63.91 62.00 65.00
C 61.51 59.69 54.95 56.52 51.00 54.00
C 50.15 57.04 49.29 60.67 47.00 56.00
C 51.80 53.97 54.58 44.91 60.00 47.00
M 206.00 59.00 
C 202.47 60.97 199.77 62.91 196.00 60.00
C 197.95 58.72 201.94 57.59 201.00 54.00
C 202.93 55.26 204.91 57.00 206.00 59.00
M 217.00 56.00 
C 222.06 62.93 207.39 63.99 207.00 71.00
C 204.83 70.07 203.89 67.95 203.00 66.00
C 208.10 63.32 212.26 59.23 217.00 56.00
M 217.00 83.00 
C 217.97 83.59 219.95 82.54 221.00 83.00
C 220.59 83.83 220.03 84.87 219.00 85.00
C 217.83 85.50 216.03 84.82 215.00 86.00
C 213.96 81.64 210.49 78.29 209.00 74.00
C 214.45 72.54 221.12 69.47 224.00 65.00
C 223.78 69.28 233.51 76.11 227.00 78.00
C 228.54 75.43 226.25 73.64 226.00 71.00
C 223.60 70.95 221.96 72.97 220.00 74.00
C 223.81 76.24 222.02 78.63 218.00 79.00
C 221.16 73.88 215.74 75.81 213.00 77.00
C 212.85 79.43 214.53 82.76 217.00 83.00
M 53.00 78.00 
C 52.36 76.11 53.81 71.99 51.00 70.00
C 55.68 70.28 56.71 75.67 53.00 78.00
M 52.00 79.00 
C 51.70 81.04 50.71 84.27 48.00 84.00
C 44.75 78.94 31.76 78.82 37.00 71.00
C 40.69 74.59 46.84 79.57 52.00 79.00
M 36.00 82.00 
C 31.00 87.40 29.47 80.13 36.00 82.00
M 234.00 86.00 
C 226.41 84.19 231.18 95.69 224.92 97.92 C 218.65 100.14 213.76 86.54 221.00 87.00
C 217.85 89.47 218.32 95.91 223.00 96.00
C 223.92 90.70 227.02 78.85 234.00 86.00
M 45.00 97.00 
C 40.98 94.41 24.96 86.82 31.00 97.00
C 23.65 96.66 30.31 90.03 30.00 86.00
C 34.65 90.06 48.28 88.60 45.00 97.00
M 234.00 88.00 
C 237.93 93.93 230.24 95.92 234.00 88.00 Z"/>
</g>
<g fill="#363233" fill-opacity="1.00" stroke="None">
<path d="
M 123.00 32.00 
C 124.06 35.01 123.97 31.39 124.00 31.00
C 124.55 27.49 122.84 22.76 125.00 20.00
C 126.80 25.27 133.16 27.70 135.00 33.00
C 137.12 29.85 135.59 25.03 136.00 21.00 C 136.42 16.97 138.94 15.09 133.00 16.00
C 135.91 17.79 135.67 23.44 134.00 26.00
C 130.94 21.48 127.88 14.20 121.00 16.00
C 124.28 20.29 122.98 26.68 123.00 32.00 Z"/>
</g>
<g fill="#363233" fill-opacity="1.00" stroke="None">
<path d="
M 150.00 17.00 
C 139.00 14.08 134.35 33.15 146.00 34.00
C 141.97 28.93 143.25 18.77 150.00 17.00 Z"/>
</g>
<g fill="#322E2F" fill-opacity="1.00" stroke="None">
<path d="
M 117.00 34.00 
C 113.19 29.59 116.24 15.37 108.00 19.00
C 110.98 22.90 109.99 28.36 104.00 27.00
C 103.72 22.75 102.96 18.52 98.00 21.00
C 102.83 26.21 97.76 41.11 107.00 37.00
C 105.08 32.89 103.71 26.11 111.00 28.00
C 111.17 31.93 112.24 37.03 117.00 34.00 Z"/>
</g>
<g fill="#2D292A" fill-opacity="1.00" stroke="None">
<path d="
M 147.00 34.00 
C 156.18 38.71 162.24 18.82 151.00 18.00
C 154.84 22.52 153.53 33.13 147.00 34.00 Z"/>
</g>
<g fill="#343131" fill-opacity="1.00" stroke="None">
<path d="
M 169.00 22.00 
C 160.51 18.97 163.14 32.71 158.00 37.00
C 163.15 37.35 172.04 45.26 173.00 36.00
C 170.23 39.33 166.48 39.31 163.00 37.00
C 165.04 31.98 166.47 26.84 169.00 22.00 Z"/>
</g>
<g fill="#3F3C3D" fill-opacity="1.00" stroke="None">
<path d="
M 89.00 25.00 
C 89.48 25.18 89.69 26.78 90.00 27.00
C 91.18 26.85 92.06 27.43 93.00 28.00
C 92.73 24.80 91.69 24.19 89.00 25.00 Z"/>
</g>
<g fill="#898687" fill-opacity="1.00" stroke="None">
<path d="
M 87.00 26.00 
C 86.95 26.50 87.00 27.00 87.00 27.00
C 87.29 27.31 89.55 26.94 90.00 27.00
C 89.69 26.78 89.48 25.18 89.00 25.00
C 88.28 25.22 87.10 24.89 87.00 26.00 Z"/>
</g>
<g fill="#393536" fill-opacity="1.00" stroke="None">
<path d="
M 87.00 27.00 
C 87.00 27.00 86.95 26.50 87.00 26.00
C 68.10 30.39 91.82 55.92 97.00 37.00
C 92.14 51.10 75.87 29.63 87.00 27.00 Z"/>
</g>
<g fill="#322E2F" fill-opacity="1.00" stroke="None">
<path d="
M 188.00 32.00 
C 178.55 23.31 168.39 44.39 181.00 47.00
C 174.78 42.38 181.00 31.40 188.00 32.00 Z"/>
</g>
<g fill="#A9A8A8" fill-opacity="1.00" stroke="None">
<path d="
M 123.00 32.00 
C 118.74 34.23 125.11 34.25 127.00 34.00
C 127.46 32.59 125.17 30.94 124.00 31.00
C 123.97 31.39 124.06 35.01 123.00 32.00 Z"/>
</g>
<g fill="#2F2B2C" fill-opacity="1.00" stroke="None">
<path d="
M 191.00 33.00 
C 189.67 37.91 188.12 45.02 182.00 47.00
C 189.80 52.06 197.22 38.89 191.00 33.00 Z"/>
</g>
<g fill="#393637" fill-opacity="1.00" stroke="None">
<path d="
M 75.00 38.00 
C 74.25 36.32 72.57 34.96 71.00 34.00
C 68.86 37.13 65.25 39.12 62.00 41.00
C 65.15 45.79 69.63 49.71 72.00 55.00
C 75.35 52.59 85.07 48.76 80.00 44.00
C 81.03 47.87 77.38 50.73 74.00 51.00
C 74.53 48.32 70.52 47.66 71.00 45.00
C 76.22 46.18 74.14 42.36 72.00 40.00
C 69.73 50.81 63.66 32.41 75.00 38.00 Z"/>
</g>
<g fill="#F7989C" fill-opacity="1.00" stroke="None">
<path d="
M 223.00 47.00 
C 219.88 43.05 216.00 39.16 212.00 36.00
C 215.52 39.26 219.70 43.43 223.00 47.00 Z"/>
</g>
<g fill="#353132" fill-opacity="1.00" stroke="None">
<path d="
M 208.00 54.00 
C 215.37 49.83 205.89 41.99 199.01 43.01 C 192.13 44.02 187.80 53.56 195.00 58.00
C 188.50 46.67 212.86 39.07 208.00 54.00 Z"/>
</g>
<g fill="#373334" fill-opacity="1.00" stroke="None">
<path d="
M 60.00 47.00 
C 54.58 44.91 51.80 53.97 47.00 56.00
C 49.29 60.67 50.15 57.04 51.00 54.00
C 54.95 56.52 61.51 59.69 62.00 65.00
C 64.00 63.91 65.74 61.93 67.00 60.00
C 61.71 59.45 59.36 53.52 55.00 51.00
C 55.57 48.47 58.67 48.34 60.00 47.00 Z"/>
</g>
<g fill="#FFFDFD" fill-opacity="1.00" stroke="None">
<path d="
M 56.00 121.00 
C 55.84 125.25 55.71 129.76 56.00 134.00
C 58.66 173.14 94.47 204.31 133.00 204.00 C 171.53 203.69 206.89 172.86 209.00 134.00
C 209.25 129.43 209.25 124.57 209.00 120.00
C 206.86 80.58 170.69 49.77 132.00 50.00 C 93.31 50.23 57.51 81.55 56.00 121.00
M 138.00 82.00 
C 147.21 84.28 153.38 98.76 164.68 99.32 C 175.98 99.88 184.91 109.63 190.00 118.00
C 187.24 116.58 185.73 113.35 183.00 112.00
C 181.44 113.74 181.83 117.52 182.00 120.00
C 182.36 125.23 183.79 133.86 191.00 133.00
C 187.51 142.19 195.78 149.51 194.00 159.00
C 191.00 159.00 188.00 159.00 185.00 159.00
C 190.08 147.74 181.45 140.58 172.93 139.07 C 164.40 137.57 157.64 125.54 149.31 133.31 C 140.97 141.07 133.44 138.43 125.31 143.31 C 117.18 148.19 128.52 167.33 111.00 162.00
C 111.12 154.70 121.25 141.29 108.00 140.00
C 105.76 149.34 99.13 145.24 95.75 139.25 C 92.36 133.27 84.76 129.57 88.00 121.00
C 79.38 121.34 71.63 131.62 63.00 124.00
C 73.18 127.36 79.47 113.43 90.00 115.00
C 94.66 97.46 111.54 80.31 131.00 82.00
C 133.51 81.76 135.38 81.35 138.00 82.00
M 194.00 143.00 
C 190.92 136.05 196.06 126.51 190.00 119.00
C 195.87 123.80 195.91 135.37 194.00 143.00
M 151.00 154.00 
C 149.45 154.78 145.36 156.26 144.00 154.00
C 140.95 148.94 154.06 146.98 151.97 141.97 C 149.88 136.97 153.18 130.07 160.00 134.00
C 161.77 142.02 153.91 146.09 154.00 154.00
C 153.00 154.00 152.00 154.00 151.00 154.00
M 109.00 147.00 
C 113.32 154.73 106.60 163.04 98.00 160.00
C 97.78 153.63 103.03 148.23 109.00 147.00 Z"/>
</g>
<g fill="#373435" fill-opacity="1.00" stroke="None">
<path d="
M 206.00 59.00 
C 204.91 57.00 202.93 55.26 201.00 54.00
C 201.94 57.59 197.95 58.72 196.00 60.00
C 199.77 62.91 202.47 60.97 206.00 59.00 Z"/>
</g>
<g fill="#312D2E" fill-opacity="1.00" stroke="None">
<path d="
M 217.00 56.00 
C 212.26 59.23 208.10 63.32 203.00 66.00
C 203.89 67.95 204.83 70.07 207.00 71.00
C 207.39 63.99 222.06 62.93 217.00 56.00 Z"/>
</g>
<g fill="#393637" fill-opacity="1.00" stroke="None">
<path d="
M 219.00 85.00 
C 218.46 84.90 217.45 83.34 217.00 83.00
C 214.53 82.76 212.85 79.43 213.00 77.00
C 215.74 75.81 221.16 73.88 218.00 79.00
C 222.02 78.63 223.81 76.24 220.00 74.00
C 221.96 72.97 223.60 70.95 226.00 71.00
C 226.25 73.64 228.54 75.43 227.00 78.00
C 233.51 76.11 223.78 69.28 224.00 65.00
C 221.12 69.47 214.45 72.54 209.00 74.00
C 210.49 78.29 213.96 81.64 215.00 86.00
C 216.03 84.82 217.83 85.50 219.00 85.00 Z"/>
</g>
<g fill="#555252" fill-opacity="1.00" stroke="None">
<path d="
M 53.00 78.00 
C 56.71 75.67 55.68 70.28 51.00 70.00
C 53.81 71.99 52.36 76.11 53.00 78.00 Z"/>
</g>
<g fill="#2E2A2B" fill-opacity="1.00" stroke="None">
<path d="
M 52.00 79.00 
C 46.84 79.57 40.69 74.59 37.00 71.00
C 31.76 78.82 44.75 78.94 48.00 84.00
C 50.71 84.27 51.70 81.04 52.00 79.00 Z"/>
</g>
<g fill="#454142" fill-opacity="1.00" stroke="None">
<path d="
M 36.00 82.00 
C 29.47 80.13 31.00 87.40 36.00 82.00 Z"/>
</g>
<g fill="#F65A5A" fill-opacity="1.00" stroke="None">
<path d="
M 131.00 82.00 
C 133.28 82.00 135.74 81.74 138.00 82.00
C 135.38 81.35 133.51 81.76 131.00 82.00 Z"/>
</g>
<g fill="#F10F0B" fill-opacity="1.00" stroke="None">
<path d="
M 182.00 120.00 
C 181.59 117.73 179.28 111.43 183.00 112.00
C 185.73 113.35 187.24 116.58 190.00 118.00
C 184.91 109.63 175.98 99.88 164.68 99.32 C 153.38 98.76 147.21 84.28 138.00 82.00
C 135.74 81.74 133.28 82.00 131.00 82.00
C 111.54 80.31 94.66 97.46 90.00 115.00
C 79.47 113.43 73.18 127.36 63.00 124.00
C 71.63 131.62 79.38 121.34 88.00 121.00
C 84.76 129.57 92.36 133.27 95.75 139.25 C 99.13 145.24 105.76 149.34 108.00 140.00
C 121.25 141.29 111.12 154.70 111.00 162.00
C 128.52 167.33 117.18 148.19 125.31 143.31 C 133.44 138.43 140.97 141.07 149.31 133.31 C 157.64 125.54 164.40 137.57 172.93 139.07 C 181.45 140.58 190.08 147.74 185.00 159.00
C 188.00 159.00 191.00 159.00 194.00 159.00
C 195.78 149.51 187.51 142.19 191.00 133.00
C 183.79 133.86 182.36 125.23 182.00 120.00
M 92.00 124.00 
C 98.72 123.08 98.96 118.63 105.23 115.23 C 111.50 111.83 116.59 120.83 108.78 120.22 C 100.96 119.61 100.11 128.70 92.00 124.00 Z"/>
</g>
<g fill="#A9A7A8" fill-opacity="1.00" stroke="None">
<path d="
M 219.00 85.00 
C 220.03 84.87 220.59 83.83 221.00 83.00
C 219.95 82.54 217.97 83.59 217.00 83.00
C 217.45 83.34 218.46 84.90 219.00 85.00 Z"/>
</g>
<g fill="#343031" fill-opacity="1.00" stroke="None">
<path d="
M 234.00 86.00 
C 227.02 78.85 223.92 90.70 223.00 96.00
C 218.32 95.91 217.85 89.47 221.00 87.00
C 213.76 86.54 218.65 100.14 224.92 97.92 C 231.18 95.69 226.41 84.19 234.00 86.00 Z"/>
</g>
<g fill="#332F30" fill-opacity="1.00" stroke="None">
<path d="
M 45.00 97.00 
C 48.28 88.60 34.65 90.06 30.00 86.00
C 30.31 90.03 23.65 96.66 31.00 97.00
C 24.96 86.82 40.98 94.41 45.00 97.00 Z"/>
</g>
<g fill="#3A3738" fill-opacity="1.00" stroke="None">
<path d="
M 234.00 88.00 
C 230.24 95.92 237.93 93.93 234.00 88.00 Z"/>
</g>
<g fill="#F99191" fill-opacity="1.00" stroke="None">
<path d="
M 182.00 120.00 
C 181.83 117.52 181.44 113.74 183.00 112.00
C 179.28 111.43 181.59 117.73 182.00 120.00 Z"/>
</g>
<g fill="#020000" fill-opacity="1.00" stroke="None">
<path d="
M 92.00 124.00 
C 100.11 128.70 100.96 119.61 108.78 120.22 C 116.59 120.83 111.50 111.83 105.23 115.23 C 98.96 118.63 98.72 123.08 92.00 124.00 Z"/>
</g>
<g fill="#F97773" fill-opacity="1.00" stroke="None">
<path d="
M 194.00 143.00 
C 195.91 135.37 195.87 123.80 190.00 119.00
C 196.06 126.51 190.92 136.05 194.00 143.00 Z"/>
</g>
<g fill="#F79598" fill-opacity="1.00" stroke="None">
<path d="
M 209.00 134.00 
C 209.74 129.46 209.75 124.60 209.00 120.00
C 209.25 124.57 209.25 129.43 209.00 134.00 Z"/>
</g>
<g fill="#F9827F" fill-opacity="1.00" stroke="None">
<path d="
M 35.00 124.00 
C 33.59 119.09 28.93 122.50 35.00 124.00 Z"/>
</g>
<g fill="#F9716F" fill-opacity="1.00" stroke="None">
<path d="
M 39.00 122.00 
C 39.25 121.75 40.00 122.00 40.00 122.00
C 40.35 122.03 40.93 122.65 41.00 123.00
C 42.23 121.62 44.48 123.68 44.00 121.00
C 41.30 121.55 35.01 119.23 36.00 124.00
C 36.92 123.47 38.23 122.78 39.00 122.00 Z"/>
</g>
<g fill="#F69295" fill-opacity="1.00" stroke="None">
<path d="
M 56.00 134.00 
C 55.71 129.76 55.84 125.25 56.00 121.00
C 55.40 125.23 55.23 129.68 56.00 134.00 Z"/>
</g>
<g fill="#F88180" fill-opacity="1.00" stroke="None">
<path d="
M 232.00 129.00 
C 230.57 127.97 230.31 123.96 232.00 123.00
C 231.72 121.77 230.28 120.73 229.00 121.00
C 230.49 123.90 230.58 128.09 229.00 131.00
C 230.35 131.19 231.64 130.32 232.00 129.00 Z"/>
</g>
<g fill="#FCD3D3" fill-opacity="1.00" stroke="None">
<path d="
M 22.00 130.00 
C 22.00 127.33 22.00 124.67 22.00 122.00
C 20.28 123.57 20.50 128.36 22.00 130.00 Z"/>
</g>
<g fill="#FFFFFF" fill-opacity="1.00" stroke="None">
<path d="
M 22.00 130.00 
C 23.72 128.43 23.50 123.64 22.00 122.00
C 22.00 124.67 22.00 127.33 22.00 130.00 Z"/>
</g>
<g fill="#FEDDDD" fill-opacity="1.00" stroke="None">
<path d="
M 35.00 130.00 
C 36.36 125.60 31.53 124.87 30.00 122.00
C 27.09 126.03 33.94 127.00 35.00 130.00 Z"/>
</g>
<g fill="#FCD3D3" fill-opacity="1.00" stroke="None">
<path d="
M 40.00 130.00 
C 39.82 127.35 40.24 124.65 40.00 122.00
C 40.00 122.00 39.25 121.75 39.00 122.00
C 38.78 124.46 38.47 128.27 40.00 130.00 Z"/>
</g>
<g fill="#FFFFFF" fill-opacity="1.00" stroke="None">
<path d="
M 40.00 130.00 
C 41.46 128.76 41.41 125.00 41.00 123.00
C 40.93 122.65 40.35 122.03 40.00 122.00
C 40.24 124.65 39.82 127.35 40.00 130.00 Z"/>
</g>
<g fill="#FEE4E4" fill-opacity="1.00" stroke="None">
<path d="
M 224.00 127.00 
C 226.09 124.44 224.78 120.62 221.00 122.00
C 223.64 123.22 223.16 125.21 224.00 127.00 Z"/>
</g>
<g fill="#FFEFEE" fill-opacity="1.00" stroke="None">
<path d="
M 228.00 130.00 
C 229.72 128.43 229.50 123.64 228.00 122.00
C 226.62 124.32 226.45 127.69 228.00 130.00 Z"/>
</g>
<g fill="#FEF5F5" fill-opacity="1.00" stroke="None">
<path d="
M 236.00 123.00 
C 236.39 123.76 237.71 125.24 238.00 126.00
C 238.00 124.67 238.00 123.33 238.00 122.00
C 234.08 122.74 235.10 121.27 236.00 123.00 Z"/>
</g>
<g fill="#FEEBEA" fill-opacity="1.00" stroke="None">
<path d="
M 242.00 122.00 
C 239.22 123.74 240.09 127.45 241.00 130.00
C 243.19 128.30 241.44 124.52 242.00 122.00 Z"/>
</g>
<g fill="#FFDDDD" fill-opacity="1.00" stroke="None">
<path d="
M 245.00 122.00 
C 242.81 123.70 244.56 127.48 244.00 130.00
C 246.78 128.26 245.91 124.55 245.00 122.00 Z"/>
</g>
<g fill="#FFFFFF" fill-opacity="1.00" stroke="None">
<path d="
M 232.00 129.00 
C 232.36 127.69 232.36 124.31 232.00 123.00
C 230.31 123.96 230.57 127.97 232.00 129.00 Z"/>
</g>
<g fill="#FA8482" fill-opacity="1.00" stroke="None">
<path d="
M 234.00 129.00 
C 235.17 127.75 237.33 128.66 238.00 130.00
C 238.90 129.73 238.16 126.42 238.00 126.00
C 237.71 125.24 236.39 123.76 236.00 123.00
C 235.33 125.04 236.26 127.52 234.00 129.00 Z"/>
</g>
<g fill="#FEF2F2" fill-opacity="1.00" stroke="None">
<path d="
M 234.00 129.00 
C 234.38 130.34 236.91 130.33 238.00 130.00
C 237.33 128.66 235.17 127.75 234.00 129.00 Z"/>
</g>
<g fill="#F3231E" fill-opacity="1.00" stroke="None">
<path d="
M 144.00 154.00 
C 146.19 153.53 148.85 154.63 151.00 154.00
C 152.00 154.00 153.00 154.00 154.00 154.00
C 153.91 146.09 161.77 142.02 160.00 134.00
C 153.18 130.07 149.88 136.97 151.97 141.97 C 154.06 146.98 140.95 148.94 144.00 154.00 Z"/>
</g>
<g fill="#FBFAFA" fill-opacity="1.00" stroke="None">
<path d="
M 53.00 136.00 
C 39.67 136.00 26.33 136.00 13.00 136.00
C 15.27 197.52 72.86 247.28 133.00 247.00 C 193.14 246.72 249.49 197.09 252.00 136.00
C 238.67 136.00 225.33 136.00 212.00 136.00
C 209.32 176.37 171.36 207.26 132.00 207.00 C 92.64 206.74 56.08 176.00 53.00 136.00
M 231.00 149.00 
C 230.24 153.62 233.98 151.08 235.00 149.00
C 237.50 157.39 221.55 153.40 227.00 147.00
C 228.23 149.16 228.54 152.65 231.00 149.00
M 40.00 148.00 
C 43.69 155.22 36.11 152.77 32.00 153.00
C 34.49 150.69 39.14 151.88 40.00 148.00
M 228.00 155.00 
C 221.92 161.16 232.51 163.39 232.00 156.00
C 236.97 168.92 215.17 159.08 228.00 155.00
M 40.00 158.00 
C 40.84 158.37 42.13 157.70 43.00 158.00
C 42.39 161.68 38.16 164.00 35.00 165.00
C 35.21 163.14 37.72 158.90 34.00 159.00
C 34.12 156.18 36.77 156.58 40.00 158.00
M 230.00 166.00 
C 226.76 169.58 222.66 168.37 228.00 173.00
C 225.22 172.39 222.72 170.93 220.00 170.00
C 223.24 166.42 227.34 167.63 222.00 163.00
C 224.78 163.61 227.28 165.07 230.00 166.00
M 45.00 164.00 
C 44.04 167.01 38.38 166.92 38.00 171.00
C 35.04 166.20 41.45 164.72 45.00 164.00
M 49.00 174.00 
C 47.08 172.99 43.93 170.91 46.00 175.00
C 42.28 172.92 41.57 173.60 41.00 177.00
C 35.29 171.98 49.95 165.49 49.00 174.00
M 223.00 173.00 
C 221.14 176.55 223.29 177.74 226.00 175.00
C 226.19 182.79 213.39 176.46 218.00 171.00
C 221.07 172.30 218.12 176.60 223.00 173.00
M 50.00 175.00 
C 50.86 178.67 45.91 184.42 53.00 180.00
C 52.88 183.67 48.06 183.69 46.00 186.00
C 44.06 183.35 48.29 180.92 48.00 178.00
C 46.19 178.02 44.11 181.64 43.00 180.00
C 44.31 177.07 47.52 176.44 50.00 175.00
M 223.00 181.00 
C 222.24 187.49 214.69 182.74 214.00 179.00
C 217.53 180.55 219.92 184.11 223.00 181.00
M 58.00 187.00 
C 55.26 186.99 52.32 189.00 49.00 190.00
C 49.97 186.79 54.78 186.70 54.00 183.00
C 56.14 183.59 56.46 186.04 58.00 187.00
M 220.00 186.00 
C 218.65 192.28 211.82 188.40 211.00 184.00
C 214.57 185.67 216.31 188.96 220.00 186.00
M 210.00 187.00 
C 207.19 189.98 211.97 194.75 215.00 192.00
C 214.51 200.83 200.50 188.12 210.00 187.00
M 62.00 194.00 
C 58.45 190.29 57.71 191.65 59.00 197.00
C 56.12 198.65 52.96 196.35 53.00 193.00
C 57.33 201.23 57.18 180.82 62.00 194.00
M 207.00 193.00 
C 199.23 196.17 206.09 203.70 210.00 196.00
C 209.25 210.43 192.58 193.10 207.00 193.00
M 69.00 198.00 
C 70.50 202.45 65.61 198.34 66.00 202.00
C 67.65 204.35 69.67 205.24 66.00 208.00
C 64.56 205.74 60.11 204.77 61.00 201.00
C 64.27 200.39 65.32 197.28 69.00 198.00
M 199.00 199.00 
C 197.29 203.76 202.48 203.23 204.00 206.00
C 200.00 204.33 200.89 208.87 198.00 209.00
C 198.70 206.30 197.20 203.17 194.00 204.00
C 195.93 202.36 196.53 200.95 199.00 199.00
M 192.00 204.00 
C 190.16 206.87 190.27 210.30 194.00 207.00
C 192.97 209.21 192.91 212.18 196.00 210.00
C 197.58 211.05 194.10 213.38 193.00 214.00
C 190.29 210.54 185.46 206.03 192.00 204.00
M 77.00 205.00 
C 76.64 208.36 70.95 210.80 75.00 214.00
C 68.17 213.53 73.19 205.59 77.00 205.00
M 84.00 212.00 
C 80.29 208.58 80.19 212.16 82.00 215.00
C 78.29 211.58 78.19 215.16 80.00 218.00
C 73.32 216.64 78.14 211.45 80.00 208.00
C 81.61 208.99 84.40 209.42 84.00 212.00
M 184.00 210.00 
C 181.11 212.71 182.46 214.76 186.00 213.00
C 181.56 217.73 187.34 214.98 188.00 218.00
C 183.11 222.32 176.15 209.82 184.00 210.00
M 90.00 213.00 
C 90.21 216.46 88.30 219.40 89.00 223.00
C 87.04 220.32 84.60 218.73 82.00 219.00
C 84.10 216.54 86.28 212.57 90.00 213.00
M 179.00 222.00 
C 175.37 222.41 172.97 218.43 171.00 216.00
C 173.70 215.40 175.83 217.97 177.00 220.00
C 179.40 218.34 175.92 215.46 177.00 213.00
C 180.83 213.36 178.23 219.30 179.00 222.00
M 93.00 216.00 
C 96.72 214.70 103.73 221.98 97.75 224.75 C 91.76 227.51 89.89 220.14 93.00 216.00
M 170.00 217.00 
C 171.42 219.55 172.45 222.16 173.00 225.00
C 170.23 224.75 168.11 218.86 170.00 217.00
M 106.00 220.00 
C 102.38 221.37 103.66 222.21 105.00 225.00
C 101.50 223.09 101.47 226.54 104.00 228.00
C 97.07 229.38 100.88 215.95 106.00 220.00
M 168.00 220.00 
C 166.94 222.98 168.11 224.29 169.00 227.00
C 165.23 224.77 165.94 226.37 163.00 228.00
C 160.86 223.31 160.68 215.96 168.00 220.00
M 112.00 230.00 
C 109.84 228.32 109.55 226.38 107.00 229.00
C 106.41 226.09 108.59 223.94 108.00 221.00
C 114.64 220.42 114.01 225.89 112.00 230.00
M 152.00 222.00 
C 155.25 219.64 164.10 222.87 160.07 228.07 C 156.05 233.28 151.65 226.60 152.00 222.00
M 122.00 225.00 
C 120.57 227.65 118.86 222.63 117.00 225.00
C 123.45 226.26 120.34 235.63 115.00 230.00
C 121.55 229.83 115.49 228.04 116.00 223.00
C 118.08 223.08 121.28 222.31 122.00 225.00
M 148.00 223.00 
C 146.36 224.78 143.17 227.29 148.00 227.00
C 143.31 228.88 146.82 229.16 148.00 232.00
C 141.47 234.22 140.83 220.55 148.00 223.00
M 133.00 229.00 
C 133.72 222.15 137.93 224.12 138.00 230.00
C 140.09 228.80 137.76 224.56 141.00 224.00
C 141.03 227.17 140.13 230.12 139.00 233.00
C 134.88 228.38 136.47 228.80 132.00 233.00
C 130.83 230.15 130.00 227.18 130.00 224.00
C 132.94 224.43 130.92 228.09 133.00 229.00 Z"/>
</g>
<g fill="#F42F27" fill-opacity="1.00" stroke="None">
<path d="
M 109.00 147.00 
C 103.03 148.23 97.78 153.63 98.00 160.00
C 106.60 163.04 113.32 154.73 109.00 147.00 Z"/>
</g>
<g fill="#413E3F" fill-opacity="1.00" stroke="None">
<path d="
M 231.00 149.00 
C 228.54 152.65 228.23 149.16 227.00 147.00
C 221.55 153.40 237.50 157.39 235.00 149.00
C 233.98 151.08 230.24 153.62 231.00 149.00 Z"/>
</g>
<g fill="#3B3738" fill-opacity="1.00" stroke="None">
<path d="
M 40.00 148.00 
C 39.14 151.88 34.49 150.69 32.00 153.00
C 36.11 152.77 43.69 155.22 40.00 148.00 Z"/>
</g>
<g fill="#F98D8C" fill-opacity="1.00" stroke="None">
<path d="
M 151.00 154.00 
C 148.85 154.63 146.19 153.53 144.00 154.00
C 145.36 156.26 149.45 154.78 151.00 154.00 Z"/>
</g>
<g fill="#423E3F" fill-opacity="1.00" stroke="None">
<path d="
M 228.00 155.00 
C 215.17 159.08 236.97 168.92 232.00 156.00
C 232.51 163.39 221.92 161.16 228.00 155.00 Z"/>
</g>
<g fill="#9D9C9C" fill-opacity="1.00" stroke="None">
<path d="
M 34.00 159.00 
C 35.03 157.65 38.27 157.66 40.00 158.00
C 36.77 156.58 34.12 156.18 34.00 159.00 Z"/>
</g>
<g fill="#3C3839" fill-opacity="1.00" stroke="None">
<path d="
M 34.00 159.00 
C 37.72 158.90 35.21 163.14 35.00 165.00
C 38.16 164.00 42.39 161.68 43.00 158.00
C 42.13 157.70 40.84 158.37 40.00 158.00
C 38.27 157.66 35.03 157.65 34.00 159.00
M 40.00 159.00 
C 38.38 163.24 35.18 158.11 40.00 159.00 Z"/>
</g>
<g fill="#BCBABB" fill-opacity="1.00" stroke="None">
<path d="
M 40.00 159.00 
C 35.18 158.11 38.38 163.24 40.00 159.00 Z"/>
</g>
<g fill="#3C393A" fill-opacity="1.00" stroke="None">
<path d="
M 230.00 166.00 
C 227.28 165.07 224.78 163.61 222.00 163.00
C 227.34 167.63 223.24 166.42 220.00 170.00
C 222.72 170.93 225.22 172.39 228.00 173.00
C 222.66 168.37 226.76 169.58 230.00 166.00 Z"/>
</g>
<g fill="#3D393A" fill-opacity="1.00" stroke="None">
<path d="
M 45.00 164.00 
C 41.45 164.72 35.04 166.20 38.00 171.00
C 38.38 166.92 44.04 167.01 45.00 164.00 Z"/>
</g>
<g fill="#474344" fill-opacity="1.00" stroke="None">
<path d="
M 49.00 174.00 
C 49.95 165.49 35.29 171.98 41.00 177.00
C 41.57 173.60 42.28 172.92 46.00 175.00
C 43.93 170.91 47.08 172.99 49.00 174.00 Z"/>
</g>
<g fill="#494647" fill-opacity="1.00" stroke="None">
<path d="
M 223.00 173.00 
C 218.12 176.60 221.07 172.30 218.00 171.00
C 213.39 176.46 226.19 182.79 226.00 175.00
C 223.29 177.74 221.14 176.55 223.00 173.00 Z"/>
</g>
<g fill="#3B3839" fill-opacity="1.00" stroke="None">
<path d="
M 50.00 175.00 
C 47.52 176.44 44.31 177.07 43.00 180.00
C 44.11 181.64 46.19 178.02 48.00 178.00
C 48.29 180.92 44.06 183.35 46.00 186.00
C 48.06 183.69 52.88 183.67 53.00 180.00
C 45.91 184.42 50.86 178.67 50.00 175.00 Z"/>
</g>
<g fill="#3C3839" fill-opacity="1.00" stroke="None">
<path d="
M 223.00 181.00 
C 219.92 184.11 217.53 180.55 214.00 179.00
C 214.69 182.74 222.24 187.49 223.00 181.00 Z"/>
</g>
<g fill="#3D3A3B" fill-opacity="1.00" stroke="None">
<path d="
M 58.00 187.00 
C 56.46 186.04 56.14 183.59 54.00 183.00
C 54.78 186.70 49.97 186.79 49.00 190.00
C 52.32 189.00 55.26 186.99 58.00 187.00 Z"/>
</g>
<g fill="#413D3E" fill-opacity="1.00" stroke="None">
<path d="
M 220.00 186.00 
C 216.31 188.96 214.57 185.67 211.00 184.00
C 211.82 188.40 218.65 192.28 220.00 186.00 Z"/>
</g>
<g fill="#423F40" fill-opacity="1.00" stroke="None">
<path d="
M 210.00 187.00 
C 200.50 188.12 214.51 200.83 215.00 192.00
C 211.97 194.75 207.19 189.98 210.00 187.00 Z"/>
</g>
<g fill="#444041" fill-opacity="1.00" stroke="None">
<path d="
M 62.00 194.00 
C 57.18 180.82 57.33 201.23 53.00 193.00
C 52.96 196.35 56.12 198.65 59.00 197.00
C 57.71 191.65 58.45 190.29 62.00 194.00 Z"/>
</g>
<g fill="#454243" fill-opacity="1.00" stroke="None">
<path d="
M 207.00 193.00 
C 192.58 193.10 209.25 210.43 210.00 196.00
C 206.09 203.70 199.23 196.17 207.00 193.00 Z"/>
</g>
<g fill="#3C393A" fill-opacity="1.00" stroke="None">
<path d="
M 69.00 198.00 
C 65.32 197.28 64.27 200.39 61.00 201.00
C 60.11 204.77 64.56 205.74 66.00 208.00
C 69.67 205.24 67.65 204.35 66.00 202.00
C 65.61 198.34 70.50 202.45 69.00 198.00
M 65.00 201.00 
C 66.05 206.89 59.11 201.01 65.00 201.00 Z"/>
</g>
<g fill="#444142" fill-opacity="1.00" stroke="None">
<path d="
M 199.00 199.00 
C 196.53 200.95 195.93 202.36 194.00 204.00
C 197.20 203.17 198.70 206.30 198.00 209.00
C 200.89 208.87 200.00 204.33 204.00 206.00
C 202.48 203.23 197.29 203.76 199.00 199.00 Z"/>
</g>
<g fill="#C6C5C6" fill-opacity="1.00" stroke="None">
<path d="
M 65.00 201.00 
C 59.11 201.01 66.05 206.89 65.00 201.00 Z"/>
</g>
<g fill="#444041" fill-opacity="1.00" stroke="None">
<path d="
M 192.00 204.00 
C 185.46 206.03 190.29 210.54 193.00 214.00
C 194.10 213.38 197.58 211.05 196.00 210.00
C 192.91 212.18 192.97 209.21 194.00 207.00
C 190.27 210.30 190.16 206.87 192.00 204.00 Z"/>
</g>
<g fill="#433F40" fill-opacity="1.00" stroke="None">
<path d="
M 77.00 205.00 
C 73.19 205.59 68.17 213.53 75.00 214.00
C 70.95 210.80 76.64 208.36 77.00 205.00 Z"/>
</g>
<g fill="#423F40" fill-opacity="1.00" stroke="None">
<path d="
M 84.00 212.00 
C 84.40 209.42 81.61 208.99 80.00 208.00
C 78.14 211.45 73.32 216.64 80.00 218.00
C 78.19 215.16 78.29 211.58 82.00 215.00
C 80.19 212.16 80.29 208.58 84.00 212.00 Z"/>
</g>
<g fill="#403C3D" fill-opacity="1.00" stroke="None">
<path d="
M 184.00 210.00 
C 176.15 209.82 183.11 222.32 188.00 218.00
C 187.34 214.98 181.56 217.73 186.00 213.00
C 182.46 214.76 181.11 212.71 184.00 210.00 Z"/>
</g>
<g fill="#4C494A" fill-opacity="1.00" stroke="None">
<path d="
M 90.00 213.00 
C 86.28 212.57 84.10 216.54 82.00 219.00
C 84.60 218.73 87.04 220.32 89.00 223.00
C 88.30 219.40 90.21 216.46 90.00 213.00 Z"/>
</g>
<g fill="#423E3F" fill-opacity="1.00" stroke="None">
<path d="
M 179.00 222.00 
C 178.23 219.30 180.83 213.36 177.00 213.00
C 175.92 215.46 179.40 218.34 177.00 220.00
C 175.83 217.97 173.70 215.40 171.00 216.00
C 172.97 218.43 175.37 222.41 179.00 222.00 Z"/>
</g>
<g fill="#3C3839" fill-opacity="1.00" stroke="None">
<path d="
M 93.00 216.00 
C 89.89 220.14 91.76 227.51 97.75 224.75 C 103.73 221.98 96.72 214.70 93.00 216.00
M 97.00 218.00 
C 99.69 219.19 96.68 224.96 94.30 223.64 C 91.93 222.32 94.01 216.68 97.00 218.00 Z"/>
</g>
<g fill="#3E3A3B" fill-opacity="1.00" stroke="None">
<path d="
M 170.00 217.00 
C 168.11 218.86 170.23 224.75 173.00 225.00
C 172.45 222.16 171.42 219.55 170.00 217.00 Z"/>
</g>
<g fill="#DDDCDC" fill-opacity="1.00" stroke="None">
<path d="
M 97.00 218.00 
C 94.01 216.68 91.93 222.32 94.30 223.64 C 96.68 224.96 99.69 219.19 97.00 218.00 Z"/>
</g>
<g fill="#383536" fill-opacity="1.00" stroke="None">
<path d="
M 106.00 220.00 
C 100.88 215.95 97.07 229.38 104.00 228.00
C 101.47 226.54 101.50 223.09 105.00 225.00
C 103.66 222.21 102.38 221.37 106.00 220.00 Z"/>
</g>
<g fill="#423F3F" fill-opacity="1.00" stroke="None">
<path d="
M 168.00 220.00 
C 160.68 215.96 160.86 223.31 163.00 228.00
C 165.94 226.37 165.23 224.77 169.00 227.00
C 168.11 224.29 166.94 222.98 168.00 220.00
M 166.00 220.00 
C 166.77 226.08 159.86 220.31 166.00 220.00 Z"/>
</g>
<g fill="#C3C2C2" fill-opacity="1.00" stroke="None">
<path d="
M 166.00 220.00 
C 159.86 220.31 166.77 226.08 166.00 220.00 Z"/>
</g>
<g fill="#3E3A3B" fill-opacity="1.00" stroke="None">
<path d="
M 112.00 230.00 
C 114.01 225.89 114.64 220.42 108.00 221.00
C 108.59 223.94 106.41 226.09 107.00 229.00
C 109.55 226.38 109.84 228.32 112.00 230.00
M 112.00 223.00 
C 111.82 227.35 106.88 222.90 112.00 223.00 Z"/>
</g>
<g fill="#3A3738" fill-opacity="1.00" stroke="None">
<path d="
M 152.00 222.00 
C 151.65 226.60 156.05 233.28 160.07 228.07 C 164.10 222.87 155.25 219.64 152.00 222.00
M 154.00 223.00 
C 164.35 222.45 154.08 234.35 154.00 223.00 Z"/>
</g>
<g fill="#ECECEC" fill-opacity="1.00" stroke="None">
<path d="
M 112.00 223.00 
C 106.88 222.90 111.82 227.35 112.00 223.00 Z"/>
</g>
<g fill="#474445" fill-opacity="1.00" stroke="None">
<path d="
M 122.00 225.00 
C 121.28 222.31 118.08 223.08 116.00 223.00
C 115.49 228.04 121.55 229.83 115.00 230.00
C 120.34 235.63 123.45 226.26 117.00 225.00
C 118.86 222.63 120.57 227.65 122.00 225.00 Z"/>
</g>
<g fill="#433F40" fill-opacity="1.00" stroke="None">
<path d="
M 148.00 223.00 
C 140.83 220.55 141.47 234.22 148.00 232.00
C 146.82 229.16 143.31 228.88 148.00 227.00
C 143.17 227.29 146.36 224.78 148.00 223.00 Z"/>
</g>
<g fill="#DEDEDE" fill-opacity="1.00" stroke="None">
<path d="
M 154.00 223.00 
C 154.08 234.35 164.35 222.45 154.00 223.00 Z"/>
</g>
<g fill="#423F40" fill-opacity="1.00" stroke="None">
<path d="
M 133.00 229.00 
C 130.92 228.09 132.94 224.43 130.00 224.00
C 130.00 227.18 130.83 230.15 132.00 233.00
C 136.47 228.80 134.88 228.38 139.00 233.00
C 140.13 230.12 141.03 227.17 141.00 224.00
C 137.76 224.56 140.09 228.80 138.00 230.00
C 137.93 224.12 133.72 222.15 133.00 229.00 Z"/>
</g>
</svg>